<svg xmlns="http://www.w3.org/2000/svg" viewBox="0 0 500 700" stroke="currentColor" fill="none" stroke-width="1.5" stroke-linecap="round" stroke-linejoin="round">
  <style>:root { color: #1B2438; }</style>
  <!-- Top edge circles -->
  <circle cx="31" cy="30" r="5"/>
  <circle cx="56" cy="29" r="5"/>
  <circle cx="81" cy="30" r="5"/>
  <circle cx="106" cy="29" r="5"/>
  <circle cx="131" cy="30" r="5"/>
  <circle cx="156" cy="29" r="5"/>
  <circle cx="181" cy="30" r="5"/>
  <circle cx="206" cy="29" r="5"/>
  <circle cx="231" cy="30" r="5"/>
  <circle cx="256" cy="29" r="5"/>
  <circle cx="281" cy="30" r="5"/>
  <circle cx="306" cy="29" r="5"/>
  <circle cx="331" cy="30" r="5"/>
  <circle cx="356" cy="29" r="5"/>
  <circle cx="381" cy="30" r="5"/>
  <circle cx="406" cy="29" r="5"/>
  <circle cx="431" cy="30" r="5"/>
  <circle cx="456" cy="29" r="5"/>
  <!-- Bottom edge circles -->
  <circle cx="32" cy="671" r="5"/>
  <circle cx="57" cy="670" r="5"/>
  <circle cx="82" cy="671" r="5"/>
  <circle cx="107" cy="670" r="5"/>
  <circle cx="132" cy="671" r="5"/>
  <circle cx="157" cy="670" r="5"/>
  <circle cx="182" cy="671" r="5"/>
  <circle cx="207" cy="670" r="5"/>
  <circle cx="232" cy="671" r="5"/>
  <circle cx="257" cy="670" r="5"/>
  <circle cx="282" cy="671" r="5"/>
  <circle cx="307" cy="670" r="5"/>
  <circle cx="332" cy="671" r="5"/>
  <circle cx="357" cy="670" r="5"/>
  <circle cx="382" cy="671" r="5"/>
  <circle cx="407" cy="670" r="5"/>
  <circle cx="432" cy="671" r="5"/>
  <circle cx="457" cy="670" r="5"/>
  <!-- Left edge circles -->
  <circle cx="31" cy="55" r="5"/>
  <circle cx="30" cy="80" r="5"/>
  <circle cx="31" cy="105" r="5"/>
  <circle cx="30" cy="130" r="5"/>
  <circle cx="31" cy="155" r="5"/>
  <circle cx="30" cy="180" r="5"/>
  <circle cx="31" cy="205" r="5"/>
  <circle cx="30" cy="230" r="5"/>
  <circle cx="31" cy="255" r="5"/>
  <circle cx="30" cy="280" r="5"/>
  <circle cx="31" cy="305" r="5"/>
  <circle cx="30" cy="330" r="5"/>
  <circle cx="31" cy="355" r="5"/>
  <circle cx="30" cy="380" r="5"/>
  <circle cx="31" cy="405" r="5"/>
  <circle cx="30" cy="430" r="5"/>
  <circle cx="31" cy="455" r="5"/>
  <circle cx="30" cy="480" r="5"/>
  <circle cx="31" cy="505" r="5"/>
  <circle cx="30" cy="530" r="5"/>
  <circle cx="31" cy="555" r="5"/>
  <circle cx="30" cy="580" r="5"/>
  <circle cx="31" cy="605" r="5"/>
  <circle cx="30" cy="630" r="5"/>
  <circle cx="31" cy="655" r="5"/>
  <!-- Right edge circles -->
  <circle cx="469" cy="56" r="5"/>
  <circle cx="470" cy="81" r="5"/>
  <circle cx="469" cy="106" r="5"/>
  <circle cx="470" cy="131" r="5"/>
  <circle cx="469" cy="156" r="5"/>
  <circle cx="470" cy="181" r="5"/>
  <circle cx="469" cy="206" r="5"/>
  <circle cx="470" cy="231" r="5"/>
  <circle cx="469" cy="256" r="5"/>
  <circle cx="470" cy="281" r="5"/>
  <circle cx="469" cy="306" r="5"/>
  <circle cx="470" cy="331" r="5"/>
  <circle cx="469" cy="356" r="5"/>
  <circle cx="470" cy="381" r="5"/>
  <circle cx="469" cy="406" r="5"/>
  <circle cx="470" cy="431" r="5"/>
  <circle cx="469" cy="456" r="5"/>
  <circle cx="470" cy="481" r="5"/>
  <circle cx="469" cy="506" r="5"/>
  <circle cx="470" cy="531" r="5"/>
  <circle cx="469" cy="556" r="5"/>
  <circle cx="470" cy="581" r="5"/>
  <circle cx="469" cy="606" r="5"/>
  <circle cx="470" cy="631" r="5"/>
  <circle cx="469" cy="656" r="5"/>
</svg>
