<svg xmlns="http://www.w3.org/2000/svg" viewBox="0 0 500 700" stroke="currentColor" fill="none" stroke-width="1.5" stroke-linecap="round" stroke-linejoin="round">
  <style>:root { color: #1B2438; }</style>
  <!-- Top-left corner ornament -->
  <rect x="22" y="20" width="28" height="28"/>
  <rect x="27" y="25" width="18" height="18"/>
  <circle cx="36" cy="34" r="4"/>
  <!-- Top-right corner ornament -->
  <rect x="450" y="21" width="28" height="28"/>
  <rect x="455" y="26" width="18" height="18"/>
  <circle cx="464" cy="35" r="4"/>
  <!-- Bottom-left corner ornament -->
  <rect x="23" y="652" width="28" height="28"/>
  <rect x="28" y="657" width="18" height="18"/>
  <circle cx="37" cy="666" r="4"/>
  <!-- Bottom-right corner ornament -->
  <rect x="449" y="651" width="28" height="28"/>
  <rect x="454" y="656" width="18" height="18"/>
  <circle cx="463" cy="665" r="4"/>
  <!-- Connecting lines -->
  <line x1="51" y1="34" x2="449" y2="35"/>
  <line x1="52" y1="666" x2="448" y2="665"/>
  <line x1="36" y1="49" x2="37" y2="651"/>
  <line x1="464" y1="50" x2="463" y2="650"/>
</svg>
