<svg xmlns="http://www.w3.org/2000/svg" viewBox="0 0 500 700" stroke="currentColor" fill="none" stroke-width="1.5" stroke-linecap="round" stroke-linejoin="round">
  <style>:root { color: #1B2438; }</style>
  <!-- Top edge: irregular dashes suggesting painted strokes -->
  <line x1="35" y1="38" x2="68" y2="36"/>
  <line x1="75" y1="40" x2="120" y2="37"/>
  <line x1="128" y1="35" x2="158" y2="39"/>
  <line x1="170" y1="37" x2="220" y2="35"/>
  <line x1="232" y1="39" x2="270" y2="36"/>
  <line x1="280" y1="38" x2="330" y2="40"/>
  <line x1="342" y1="36" x2="390" y2="38"/>
  <line x1="400" y1="35" x2="440" y2="37"/>
  <line x1="448" y1="40" x2="468" y2="38"/>
  <!-- Bottom edge: irregular dashes -->
  <line x1="35" y1="663" x2="75" y2="665"/>
  <line x1="88" y1="662" x2="140" y2="666"/>
  <line x1="155" y1="664" x2="200" y2="662"/>
  <line x1="215" y1="666" x2="285" y2="663"/>
  <line x1="300" y1="665" x2="345" y2="662"/>
  <line x1="360" y1="666" x2="420" y2="664"/>
  <line x1="432" y1="662" x2="468" y2="665"/>
  <!-- Left edge: irregular dashes -->
  <line x1="36" y1="50" x2="38" y2="120"/>
  <line x1="35" y1="135" x2="37" y2="250"/>
  <line x1="38" y1="270" x2="36" y2="430"/>
  <line x1="37" y1="450" x2="35" y2="580"/>
  <line x1="36" y1="600" x2="38" y2="655"/>
  <!-- Right edge: irregular dashes -->
  <line x1="464" y1="50" x2="466" y2="150"/>
  <line x1="465" y1="168" x2="463" y2="320"/>
  <line x1="466" y1="340" x2="464" y2="500"/>
  <line x1="463" y1="520" x2="465" y2="650"/>
</svg>
