<svg xmlns="http://www.w3.org/2000/svg" viewBox="0 0 500 700" fill="none" stroke="currentColor" stroke-width="1.5" stroke-linecap="round" stroke-linejoin="round">
  <style>:root { color: #1B2438; }</style>

  <!-- Outer border lines -->
  <path d="M 60 22 Q 150 20 250 22 Q 350 24 440 22" />
  <path d="M 478 60 Q 480 175 478 350 Q 476 525 478 640" />
  <path d="M 440 678 Q 350 680 250 678 Q 150 676 60 678" />
  <path d="M 22 640 Q 20 525 22 350 Q 24 175 22 60" />

  <!-- Inner border lines -->
  <path d="M 68 30 Q 150 28 250 30 Q 350 32 432 30" />
  <path d="M 470 68 Q 472 175 470 350 Q 468 525 470 632" />
  <path d="M 432 670 Q 350 672 250 670 Q 150 668 68 670" />
  <path d="M 30 632 Q 28 525 30 350 Q 32 175 30 68" />

  <!-- Top-left scrollwork -->
  <path d="M 60 22 Q 40 22 30 12 Q 22 4 14 10 Q 6 18 14 24 Q 22 28 22 40" />
  <path d="M 22 60 Q 22 40 12 30 Q 4 22 10 14 Q 18 6 24 14 Q 28 22 40 22" />
  <!-- Inner scroll detail -->
  <path d="M 30 30 Q 22 22 28 16 Q 34 22 30 30" />
  <circle cx="20" cy="12" r="1.5" />

  <!-- Top-right scrollwork -->
  <path d="M 440 22 Q 460 22 470 12 Q 478 4 486 10 Q 494 18 486 24 Q 478 28 478 40" />
  <path d="M 478 60 Q 478 40 488 30 Q 496 22 490 14 Q 482 6 476 14 Q 472 22 460 22" />
  <!-- Inner scroll detail -->
  <path d="M 470 30 Q 478 22 472 16 Q 466 22 470 30" />
  <circle cx="480" cy="12" r="1.5" />

  <!-- Bottom-right scrollwork -->
  <path d="M 440 678 Q 460 678 470 688 Q 478 696 486 690 Q 494 682 486 676 Q 478 672 478 660" />
  <path d="M 478 640 Q 478 660 488 670 Q 496 678 490 686 Q 482 694 476 686 Q 472 678 460 678" />
  <!-- Inner scroll detail -->
  <path d="M 470 670 Q 478 678 472 684 Q 466 678 470 670" />
  <circle cx="480" cy="688" r="1.5" />

  <!-- Bottom-left scrollwork -->
  <path d="M 60 678 Q 40 678 30 688 Q 22 696 14 690 Q 6 682 14 676 Q 22 672 22 660" />
  <path d="M 22 640 Q 22 660 12 670 Q 4 678 10 686 Q 18 694 24 686 Q 28 678 40 678" />
  <!-- Inner scroll detail -->
  <path d="M 30 670 Q 22 678 28 684 Q 34 678 30 670" />
  <circle cx="20" cy="688" r="1.5" />

  <!-- Top edge ornamental break (center flourish) -->
  <path d="M 220 22 Q 230 14 240 18 Q 250 22 260 18 Q 270 14 280 22" />
  <circle cx="250" cy="14" r="2" />

  <!-- Bottom edge ornamental break -->
  <path d="M 220 678 Q 230 686 240 682 Q 250 678 260 682 Q 270 686 280 678" />
  <circle cx="250" cy="686" r="2" />

  <!-- Left edge swash (midpoint) -->
  <path d="M 22 330 Q 14 340 18 350 Q 22 360 14 370" />
  <circle cx="12" cy="350" r="1.5" />

  <!-- Right edge swash (midpoint) -->
  <path d="M 478 330 Q 486 340 482 350 Q 478 360 486 370" />
  <circle cx="488" cy="350" r="1.5" />
</svg>
