<svg xmlns="http://www.w3.org/2000/svg" viewBox="0 0 500 700" stroke="currentColor" fill="none" stroke-width="1.5" stroke-linecap="round" stroke-linejoin="round">
  <style>:root { color: #1B2438; }</style>
  <!-- Main border frame -->
  <rect x="35" y="35" width="430" height="630" rx="0" ry="0"/>
  <!-- Bottom edge piano keys (white keys) -->
  <rect x="35" y="635" width="27" height="30"/>
  <rect x="62" y="635" width="27" height="30"/>
  <rect x="89" y="635" width="27" height="30"/>
  <rect x="116" y="635" width="27" height="30"/>
  <rect x="143" y="635" width="27" height="30"/>
  <rect x="170" y="635" width="27" height="30"/>
  <rect x="197" y="635" width="27" height="30"/>
  <rect x="224" y="635" width="27" height="30"/>
  <rect x="251" y="635" width="27" height="30"/>
  <rect x="278" y="635" width="27" height="30"/>
  <rect x="305" y="635" width="27" height="30"/>
  <rect x="332" y="635" width="27" height="30"/>
  <rect x="359" y="635" width="27" height="30"/>
  <rect x="386" y="635" width="27" height="30"/>
  <rect x="413" y="635" width="27" height="30"/>
  <rect x="440" y="635" width="25" height="30"/>
  <!-- Black keys (shorter rectangles overlapping white keys) -->
  <rect x="53" y="635" width="18" height="18"/>
  <rect x="107" y="635" width="18" height="18"/>
  <rect x="161" y="635" width="18" height="18"/>
</svg>
