<svg xmlns="http://www.w3.org/2000/svg" viewBox="0 0 500 700" fill="none" stroke="currentColor" stroke-width="1.5" stroke-linecap="round" stroke-linejoin="round">
  <style>:root { color: #1B2438; }</style>

  <!-- TOP EDGE doodles -->

  <!-- Tiny star (top-left area) -->
  <path d="M 60 18 L 62 12 L 64 18 L 70 16 L 65 20 L 68 25 L 63 22 L 60 26 L 61 21 L 55 19 Z" />

  <!-- Small heart (top center-left) -->
  <path d="M 150 14 Q 150 8 156 8 Q 162 8 162 14 Q 162 20 156 26 Q 150 20 150 14" />

  <!-- Tiny champagne glass (top center) -->
  <path d="M 248 8 Q 244 16 244 20 L 244 26" />
  <path d="M 252 8 Q 256 16 256 20 L 256 26" />
  <path d="M 240 26 L 260 26" />
  <path d="M 244 8 L 256 8" />
  <!-- Bubbles -->
  <circle cx="250" cy="4" r="1" />
  <circle cx="254" cy="2" r="0.8" />

  <!-- Small leaf (top center-right) -->
  <path d="M 340 20 Q 345 10 350 20 Q 345 22 340 20" />
  <path d="M 345 20 L 345 28" />

  <!-- Tiny star (top-right area) -->
  <line x1="430" y1="14" x2="430" y2="22" />
  <line x1="426" y1="18" x2="434" y2="18" />

  <!-- RIGHT EDGE doodles -->

  <!-- Small heart -->
  <path d="M 478 80 Q 478 74 484 74 Q 490 74 490 80 Q 490 86 484 92 Q 478 86 478 80" />

  <!-- Tiny star -->
  <path d="M 480 180 L 482 174 L 484 180 L 490 178 L 485 182 L 488 187 L 483 184 L 480 188 L 481 183 L 475 181 Z" />

  <!-- Small leaf -->
  <path d="M 482 280 Q 490 275 486 268 Q 480 275 482 280" />

  <!-- Tiny champagne glass -->
  <path d="M 480 370 Q 477 378 477 382 L 477 386" />
  <path d="M 486 370 Q 489 378 489 382 L 489 386" />
  <path d="M 475 386 L 491 386" />
  <circle cx="483" cy="367" r="1" />

  <!-- Small star -->
  <line x1="483" y1="460" x2="483" y2="468" />
  <line x1="479" y1="464" x2="487" y2="464" />

  <!-- Heart -->
  <path d="M 478 560 Q 478 554 484 554 Q 490 554 490 560 Q 490 566 484 572 Q 478 566 478 560" />

  <!-- Leaf -->
  <path d="M 484 640 Q 490 632 494 640 Q 490 644 484 640" />

  <!-- BOTTOM EDGE doodles -->

  <!-- Star -->
  <path d="M 420 680 L 422 674 L 424 680 L 430 678 L 425 682 L 428 687 L 423 684 L 420 688 L 421 683 L 415 681 Z" />

  <!-- Heart -->
  <path d="M 330 676 Q 330 670 336 670 Q 342 670 342 676 Q 342 682 336 688 Q 330 682 330 676" />

  <!-- Tiny leaf -->
  <path d="M 245 682 Q 250 672 255 682 Q 250 684 245 682" />
  <path d="M 250 682 L 250 690" />

  <!-- Champagne glass -->
  <path d="M 160 674 Q 157 682 157 686 L 157 690" />
  <path d="M 166 674 Q 169 682 169 686 L 169 690" />
  <path d="M 155 690 L 171 690" />
  <circle cx="163" cy="671" r="1" />

  <!-- Sparkle cross -->
  <line x1="70" y1="678" x2="70" y2="686" />
  <line x1="66" y1="682" x2="74" y2="682" />

  <!-- LEFT EDGE doodles -->

  <!-- Heart -->
  <path d="M 10 100 Q 10 94 16 94 Q 22 94 22 100 Q 22 106 16 112 Q 10 106 10 100" />

  <!-- Star -->
  <path d="M 14 200 L 16 194 L 18 200 L 24 198 L 19 202 L 22 207 L 17 204 L 14 208 L 15 203 L 9 201 Z" />

  <!-- Leaf -->
  <path d="M 14 300 Q 8 292 4 300 Q 8 304 14 300" />

  <!-- Tiny champagne glass -->
  <path d="M 12 390 Q 9 398 9 402 L 9 406" />
  <path d="M 18 390 Q 21 398 21 402 L 21 406" />
  <path d="M 7 406 L 23 406" />
  <circle cx="15" cy="387" r="1" />

  <!-- Sparkle -->
  <line x1="15" y1="480" x2="15" y2="488" />
  <line x1="11" y1="484" x2="19" y2="484" />

  <!-- Heart -->
  <path d="M 10 570 Q 10 564 16 564 Q 22 564 22 570 Q 22 576 16 582 Q 10 576 10 570" />

  <!-- Star -->
  <path d="M 14 640 L 16 634 L 18 640 L 24 638 L 19 642 L 22 647 L 17 644 L 14 648 L 15 643 L 9 641 Z" />
</svg>
