<svg xmlns="http://www.w3.org/2000/svg" viewBox="0 0 500 700" stroke="currentColor" fill="none" stroke-width="1.5" stroke-linecap="round" stroke-linejoin="round">
  <style>:root { color: #1B2438; }</style>
  <!-- Outer rect -->
  <rect x="24" y="22" width="452" height="656"/>
  <!-- Top edge perforation rects -->
  <rect x="48" y="20" width="6" height="6"/>
  <rect x="72" y="20" width="6" height="6"/>
  <rect x="96" y="20" width="6" height="6"/>
  <rect x="120" y="20" width="6" height="6"/>
  <rect x="144" y="20" width="6" height="6"/>
  <rect x="168" y="20" width="6" height="6"/>
  <rect x="192" y="20" width="6" height="6"/>
  <rect x="216" y="20" width="6" height="6"/>
  <rect x="240" y="20" width="6" height="6"/>
  <rect x="264" y="20" width="6" height="6"/>
  <rect x="288" y="20" width="6" height="6"/>
  <rect x="312" y="20" width="6" height="6"/>
  <rect x="336" y="20" width="6" height="6"/>
  <rect x="360" y="20" width="6" height="6"/>
  <rect x="384" y="20" width="6" height="6"/>
  <rect x="408" y="20" width="6" height="6"/>
  <rect x="432" y="20" width="6" height="6"/>
  <rect x="456" y="20" width="6" height="6"/>
  <!-- Bottom edge perforation rects -->
  <rect x="49" y="674" width="6" height="6"/>
  <rect x="73" y="674" width="6" height="6"/>
  <rect x="97" y="674" width="6" height="6"/>
  <rect x="121" y="674" width="6" height="6"/>
  <rect x="145" y="674" width="6" height="6"/>
  <rect x="169" y="674" width="6" height="6"/>
  <rect x="193" y="674" width="6" height="6"/>
  <rect x="217" y="674" width="6" height="6"/>
  <rect x="241" y="674" width="6" height="6"/>
  <rect x="265" y="674" width="6" height="6"/>
  <rect x="289" y="674" width="6" height="6"/>
  <rect x="313" y="674" width="6" height="6"/>
  <rect x="337" y="674" width="6" height="6"/>
  <rect x="361" y="674" width="6" height="6"/>
  <rect x="385" y="674" width="6" height="6"/>
  <rect x="409" y="674" width="6" height="6"/>
  <rect x="433" y="674" width="6" height="6"/>
  <rect x="457" y="674" width="6" height="6"/>
  <!-- Left edge perforation rects -->
  <rect x="22" y="46" width="6" height="6"/>
  <rect x="22" y="70" width="6" height="6"/>
  <rect x="22" y="94" width="6" height="6"/>
  <rect x="22" y="118" width="6" height="6"/>
  <rect x="22" y="142" width="6" height="6"/>
  <rect x="22" y="166" width="6" height="6"/>
  <rect x="22" y="190" width="6" height="6"/>
  <rect x="22" y="214" width="6" height="6"/>
  <rect x="22" y="238" width="6" height="6"/>
  <rect x="22" y="262" width="6" height="6"/>
  <rect x="22" y="286" width="6" height="6"/>
  <rect x="22" y="310" width="6" height="6"/>
  <rect x="22" y="334" width="6" height="6"/>
  <rect x="22" y="358" width="6" height="6"/>
  <rect x="22" y="382" width="6" height="6"/>
  <rect x="22" y="406" width="6" height="6"/>
  <rect x="22" y="430" width="6" height="6"/>
  <rect x="22" y="454" width="6" height="6"/>
  <rect x="22" y="478" width="6" height="6"/>
  <rect x="22" y="502" width="6" height="6"/>
  <rect x="22" y="526" width="6" height="6"/>
  <rect x="22" y="550" width="6" height="6"/>
  <rect x="22" y="574" width="6" height="6"/>
  <rect x="22" y="598" width="6" height="6"/>
  <rect x="22" y="622" width="6" height="6"/>
  <rect x="22" y="646" width="6" height="6"/>
  <!-- Right edge perforation rects -->
  <rect x="472" y="47" width="6" height="6"/>
  <rect x="472" y="71" width="6" height="6"/>
  <rect x="472" y="95" width="6" height="6"/>
  <rect x="472" y="119" width="6" height="6"/>
  <rect x="472" y="143" width="6" height="6"/>
  <rect x="472" y="167" width="6" height="6"/>
  <rect x="472" y="191" width="6" height="6"/>
  <rect x="472" y="215" width="6" height="6"/>
  <rect x="472" y="239" width="6" height="6"/>
  <rect x="472" y="263" width="6" height="6"/>
  <rect x="472" y="287" width="6" height="6"/>
  <rect x="472" y="311" width="6" height="6"/>
  <rect x="472" y="335" width="6" height="6"/>
  <rect x="472" y="359" width="6" height="6"/>
  <rect x="472" y="383" width="6" height="6"/>
  <rect x="472" y="407" width="6" height="6"/>
  <rect x="472" y="431" width="6" height="6"/>
  <rect x="472" y="455" width="6" height="6"/>
  <rect x="472" y="479" width="6" height="6"/>
  <rect x="472" y="503" width="6" height="6"/>
  <rect x="472" y="527" width="6" height="6"/>
  <rect x="472" y="551" width="6" height="6"/>
  <rect x="472" y="575" width="6" height="6"/>
  <rect x="472" y="599" width="6" height="6"/>
  <rect x="472" y="623" width="6" height="6"/>
  <rect x="472" y="647" width="6" height="6"/>
</svg>
