<svg xmlns="http://www.w3.org/2000/svg" viewBox="0 0 500 700" stroke="currentColor" fill="none" stroke-width="1.5" stroke-linecap="round" stroke-linejoin="round">
  <style>:root { color: #1B2438; }</style>
  <!-- Top edge waves (wider, softer zigzag) -->
  <polyline points="30,32 55,26 80,32 105,26 130,32 155,26 180,32 205,26 230,32 255,26 280,32 305,26 330,32 355,26 380,32 405,26 430,32 455,26 470,30"/>
  <!-- Bottom edge waves -->
  <polyline points="31,668 56,674 81,668 106,674 131,668 156,674 181,668 206,674 231,668 256,674 281,668 306,674 331,668 356,674 381,668 406,674 431,668 456,674 469,671"/>
  <!-- Left edge waves -->
  <polyline points="32,30 26,55 32,80 26,105 32,130 26,155 32,180 26,205 32,230 26,255 32,280 26,305 32,330 26,355 32,380 26,405 32,430 26,455 32,480 26,505 32,530 26,555 32,580 26,605 32,630 26,655 30,670"/>
  <!-- Right edge waves -->
  <polyline points="468,31 474,56 468,81 474,106 468,131 474,156 468,181 474,206 468,231 474,256 468,281 474,306 468,331 474,356 468,381 474,406 468,431 474,456 468,481 474,506 468,531 474,556 468,581 474,606 468,631 474,656 470,669"/>
</svg>
