<svg xmlns="http://www.w3.org/2000/svg" viewBox="0 0 500 700" stroke="currentColor" fill="none" stroke-width="1.5" stroke-linecap="round" stroke-linejoin="round">
  <style>:root { color: #1B2438; }</style>
  <!-- Main border -->
  <rect x="50" y="50" width="400" height="600" rx="0" ry="0"/>
  <!-- Top-left laurel leaves -->
  <ellipse cx="42" cy="60" rx="8" ry="4" transform="rotate(-45 42 60)"/>
  <ellipse cx="52" cy="42" rx="8" ry="4" transform="rotate(45 52 42)"/>
  <ellipse cx="35" cy="72" rx="7" ry="3.5" transform="rotate(-50 35 72)"/>
  <ellipse cx="65" cy="42" rx="7" ry="3.5" transform="rotate(50 65 42)"/>
  <!-- Top-right laurel leaves -->
  <ellipse cx="458" cy="60" rx="8" ry="4" transform="rotate(45 458 60)"/>
  <ellipse cx="448" cy="42" rx="8" ry="4" transform="rotate(-45 448 42)"/>
  <ellipse cx="465" cy="72" rx="7" ry="3.5" transform="rotate(50 465 72)"/>
  <ellipse cx="435" cy="42" rx="7" ry="3.5" transform="rotate(-50 435 42)"/>
  <!-- Bottom-left laurel leaves -->
  <ellipse cx="42" cy="640" rx="8" ry="4" transform="rotate(45 42 640)"/>
  <ellipse cx="52" cy="658" rx="8" ry="4" transform="rotate(-45 52 658)"/>
  <ellipse cx="35" cy="628" rx="7" ry="3.5" transform="rotate(50 35 628)"/>
  <ellipse cx="65" cy="658" rx="7" ry="3.5" transform="rotate(-50 65 658)"/>
  <!-- Bottom-right laurel leaves -->
  <ellipse cx="458" cy="640" rx="8" ry="4" transform="rotate(-45 458 640)"/>
  <ellipse cx="448" cy="658" rx="8" ry="4" transform="rotate(45 448 658)"/>
  <ellipse cx="465" cy="628" rx="7" ry="3.5" transform="rotate(-50 465 628)"/>
  <ellipse cx="435" cy="658" rx="7" ry="3.5" transform="rotate(50 435 658)"/>
</svg>
