<svg xmlns="http://www.w3.org/2000/svg" viewBox="0 0 500 700" fill="none" stroke="currentColor" stroke-width="1.5" stroke-linecap="round" stroke-linejoin="round">
  <style>:root { color: #1B2438; }</style>

  <!-- Top vine -->
  <path d="M 40 30 Q 80 28 130 31 Q 180 33 250 29 Q 320 26 370 31 Q 420 34 460 30" />

  <!-- Top leaves (left cluster) -->
  <path d="M 60 30 Q 55 20 65 18 Q 70 24 60 30" />
  <path d="M 58 30 Q 50 24 55 16 Q 62 20 58 30" />
  <path d="M 100 31 Q 98 22 105 20 Q 108 26 100 31" />

  <!-- Top leaves (center) -->
  <path d="M 200 30 Q 196 21 204 19 Q 208 25 200 30" />
  <path d="M 300 29 Q 303 20 310 22 Q 306 28 300 29" />

  <!-- Top leaves (right cluster) -->
  <path d="M 400 32 Q 396 22 404 20 Q 408 26 400 32" />
  <path d="M 440 31 Q 443 21 450 23 Q 446 29 440 31" />
  <path d="M 438 31 Q 432 23 438 18 Q 443 24 438 31" />

  <!-- Right vine -->
  <path d="M 470 40 Q 472 90 469 150 Q 467 210 470 280 Q 473 350 470 420 Q 467 490 470 560 Q 472 620 470 660" />

  <!-- Right leaves -->
  <path d="M 470 80 Q 480 76 482 84 Q 476 86 470 80" />
  <path d="M 469 150 Q 479 145 482 153 Q 475 156 469 150" />
  <path d="M 470 230 Q 480 226 483 234 Q 476 237 470 230" />
  <path d="M 469 320 Q 479 316 482 324 Q 475 327 469 320" />
  <path d="M 470 400 Q 480 396 483 404 Q 476 407 470 400" />
  <path d="M 469 490 Q 479 486 482 494 Q 475 497 469 490" />
  <path d="M 470 580 Q 480 576 483 584 Q 476 587 470 580" />

  <!-- Bottom vine -->
  <path d="M 460 670 Q 420 672 370 669 Q 320 667 250 671 Q 180 674 130 669 Q 80 666 40 670" />

  <!-- Bottom leaves (right cluster) -->
  <path d="M 440 670 Q 445 680 435 682 Q 430 676 440 670" />
  <path d="M 442 670 Q 450 676 445 684 Q 438 680 442 670" />
  <path d="M 400 669 Q 402 679 395 681 Q 392 675 400 669" />

  <!-- Bottom leaves (center) -->
  <path d="M 300 671 Q 304 681 296 682 Q 292 676 300 671" />
  <path d="M 200 672 Q 196 682 190 680 Q 194 674 200 672" />

  <!-- Bottom leaves (left cluster) -->
  <path d="M 100 669 Q 104 679 96 682 Q 92 675 100 669" />
  <path d="M 60 670 Q 55 680 48 678 Q 52 672 60 670" />
  <path d="M 62 670 Q 66 680 58 683 Q 55 676 62 670" />

  <!-- Left vine -->
  <path d="M 30 660 Q 28 610 31 550 Q 33 490 30 420 Q 27 350 30 280 Q 33 210 30 140 Q 28 80 30 40" />

  <!-- Left leaves -->
  <path d="M 30 620 Q 20 624 18 616 Q 24 614 30 620" />
  <path d="M 31 540 Q 21 544 18 536 Q 25 533 31 540" />
  <path d="M 30 460 Q 20 464 17 456 Q 24 453 30 460" />
  <path d="M 31 370 Q 21 374 18 366 Q 25 363 31 370" />
  <path d="M 30 290 Q 20 294 17 286 Q 24 283 30 290" />
  <path d="M 31 200 Q 21 204 18 196 Q 25 193 31 200" />
  <path d="M 30 110 Q 20 114 17 106 Q 24 103 30 110" />

  <!-- Top-left corner cluster -->
  <path d="M 35 35 Q 25 25 30 15 Q 38 20 35 35" />
  <path d="M 35 35 Q 22 30 18 20 Q 28 22 35 35" />
  <circle cx="22" cy="14" r="1.5" />

  <!-- Top-right corner cluster -->
  <path d="M 465 35 Q 475 25 470 15 Q 462 20 465 35" />
  <path d="M 465 35 Q 478 30 482 20 Q 472 22 465 35" />
  <circle cx="478" cy="14" r="1.5" />

  <!-- Bottom-right corner cluster -->
  <path d="M 465 665 Q 475 675 470 685 Q 462 680 465 665" />
  <path d="M 465 665 Q 478 670 482 680 Q 472 678 465 665" />
  <circle cx="478" cy="686" r="1.5" />

  <!-- Bottom-left corner cluster -->
  <path d="M 35 665 Q 25 675 30 685 Q 38 680 35 665" />
  <path d="M 35 665 Q 22 670 18 680 Q 28 678 35 665" />
  <circle cx="22" cy="686" r="1.5" />
</svg>
