<svg xmlns="http://www.w3.org/2000/svg" viewBox="0 0 500 700" stroke="currentColor" fill="none" stroke-width="1.5" stroke-linecap="round" stroke-linejoin="round">
  <style>:root { color: #1B2438; }</style>
  <!-- Outer rope line -->
  <rect x="27" y="25" width="446" height="650"/>
  <!-- Inner rope line -->
  <rect x="33" y="31" width="434" height="638"/>
  <!-- Top edge diagonal twist lines -->
  <line x1="50" y1="25" x2="56" y2="31"/>
  <line x1="70" y1="26" x2="76" y2="32"/>
  <line x1="90" y1="25" x2="96" y2="31"/>
  <line x1="110" y1="26" x2="116" y2="32"/>
  <line x1="130" y1="25" x2="136" y2="31"/>
  <line x1="150" y1="26" x2="156" y2="32"/>
  <line x1="170" y1="25" x2="176" y2="31"/>
  <line x1="190" y1="26" x2="196" y2="32"/>
  <line x1="210" y1="25" x2="216" y2="31"/>
  <line x1="230" y1="26" x2="236" y2="32"/>
  <line x1="250" y1="25" x2="256" y2="31"/>
  <line x1="270" y1="26" x2="276" y2="32"/>
  <line x1="290" y1="25" x2="296" y2="31"/>
  <line x1="310" y1="26" x2="316" y2="32"/>
  <line x1="330" y1="25" x2="336" y2="31"/>
  <line x1="350" y1="26" x2="356" y2="32"/>
  <line x1="370" y1="25" x2="376" y2="31"/>
  <line x1="390" y1="26" x2="396" y2="32"/>
  <line x1="410" y1="25" x2="416" y2="31"/>
  <line x1="430" y1="26" x2="436" y2="32"/>
  <line x1="450" y1="25" x2="456" y2="31"/>
  <!-- Bottom edge diagonal twist lines -->
  <line x1="51" y1="669" x2="57" y2="675"/>
  <line x1="71" y1="670" x2="77" y2="676"/>
  <line x1="91" y1="669" x2="97" y2="675"/>
  <line x1="111" y1="670" x2="117" y2="676"/>
  <line x1="131" y1="669" x2="137" y2="675"/>
  <line x1="151" y1="670" x2="157" y2="676"/>
  <line x1="171" y1="669" x2="177" y2="675"/>
  <line x1="191" y1="670" x2="197" y2="676"/>
  <line x1="211" y1="669" x2="217" y2="675"/>
  <line x1="231" y1="670" x2="237" y2="676"/>
  <line x1="251" y1="669" x2="257" y2="675"/>
  <line x1="271" y1="670" x2="277" y2="676"/>
  <line x1="291" y1="669" x2="297" y2="675"/>
  <line x1="311" y1="670" x2="317" y2="676"/>
  <line x1="331" y1="669" x2="337" y2="675"/>
  <line x1="351" y1="670" x2="357" y2="676"/>
  <line x1="371" y1="669" x2="377" y2="675"/>
  <line x1="391" y1="670" x2="397" y2="676"/>
  <line x1="411" y1="669" x2="417" y2="675"/>
  <line x1="431" y1="670" x2="437" y2="676"/>
  <line x1="451" y1="669" x2="457" y2="675"/>
  <!-- Left edge diagonal twist lines -->
  <line x1="27" y1="50" x2="33" y2="56"/>
  <line x1="28" y1="75" x2="34" y2="81"/>
  <line x1="27" y1="100" x2="33" y2="106"/>
  <line x1="28" y1="125" x2="34" y2="131"/>
  <line x1="27" y1="150" x2="33" y2="156"/>
  <line x1="28" y1="175" x2="34" y2="181"/>
  <line x1="27" y1="200" x2="33" y2="206"/>
  <line x1="28" y1="225" x2="34" y2="231"/>
  <line x1="27" y1="250" x2="33" y2="256"/>
  <line x1="28" y1="275" x2="34" y2="281"/>
  <line x1="27" y1="300" x2="33" y2="306"/>
  <line x1="28" y1="325" x2="34" y2="331"/>
  <line x1="27" y1="350" x2="33" y2="356"/>
  <line x1="28" y1="375" x2="34" y2="381"/>
  <line x1="27" y1="400" x2="33" y2="406"/>
  <line x1="28" y1="425" x2="34" y2="431"/>
  <line x1="27" y1="450" x2="33" y2="456"/>
  <line x1="28" y1="475" x2="34" y2="481"/>
  <line x1="27" y1="500" x2="33" y2="506"/>
  <line x1="28" y1="525" x2="34" y2="531"/>
  <line x1="27" y1="550" x2="33" y2="556"/>
  <line x1="28" y1="575" x2="34" y2="581"/>
  <line x1="27" y1="600" x2="33" y2="606"/>
  <line x1="28" y1="625" x2="34" y2="631"/>
  <line x1="27" y1="650" x2="33" y2="656"/>
  <!-- Right edge diagonal twist lines -->
  <line x1="467" y1="51" x2="473" y2="57"/>
  <line x1="468" y1="76" x2="474" y2="82"/>
  <line x1="467" y1="101" x2="473" y2="107"/>
  <line x1="468" y1="126" x2="474" y2="132"/>
  <line x1="467" y1="151" x2="473" y2="157"/>
  <line x1="468" y1="176" x2="474" y2="182"/>
  <line x1="467" y1="201" x2="473" y2="207"/>
  <line x1="468" y1="226" x2="474" y2="232"/>
  <line x1="467" y1="251" x2="473" y2="257"/>
  <line x1="468" y1="276" x2="474" y2="282"/>
  <line x1="467" y1="301" x2="473" y2="307"/>
  <line x1="468" y1="326" x2="474" y2="332"/>
  <line x1="467" y1="351" x2="473" y2="357"/>
  <line x1="468" y1="376" x2="474" y2="382"/>
  <line x1="467" y1="401" x2="473" y2="407"/>
  <line x1="468" y1="426" x2="474" y2="432"/>
  <line x1="467" y1="451" x2="473" y2="457"/>
  <line x1="468" y1="476" x2="474" y2="482"/>
  <line x1="467" y1="501" x2="473" y2="507"/>
  <line x1="468" y1="526" x2="474" y2="532"/>
  <line x1="467" y1="551" x2="473" y2="557"/>
  <line x1="468" y1="576" x2="474" y2="582"/>
  <line x1="467" y1="601" x2="473" y2="607"/>
  <line x1="468" y1="626" x2="474" y2="632"/>
  <line x1="467" y1="651" x2="473" y2="657"/>
</svg>
