<svg xmlns="http://www.w3.org/2000/svg" viewBox="0 0 500 700" stroke="currentColor" fill="none" stroke-width="1.5" stroke-linecap="round" stroke-linejoin="round">
  <style>:root { color: #1B2438; }</style>
  <!-- Top edge crosses -->
  <line x1="50" y1="25" x2="50" y2="35"/><line x1="45" y1="30" x2="55" y2="30"/>
  <line x1="110" y1="24" x2="110" y2="34"/><line x1="105" y1="29" x2="115" y2="29"/>
  <line x1="170" y1="25" x2="170" y2="35"/><line x1="165" y1="30" x2="175" y2="30"/>
  <line x1="230" y1="24" x2="230" y2="34"/><line x1="225" y1="29" x2="235" y2="29"/>
  <line x1="290" y1="25" x2="290" y2="35"/><line x1="285" y1="30" x2="295" y2="30"/>
  <line x1="350" y1="24" x2="350" y2="34"/><line x1="345" y1="29" x2="355" y2="29"/>
  <line x1="410" y1="25" x2="410" y2="35"/><line x1="405" y1="30" x2="415" y2="30"/>
  <!-- Bottom edge crosses -->
  <line x1="51" y1="665" x2="51" y2="675"/><line x1="46" y1="670" x2="56" y2="670"/>
  <line x1="111" y1="666" x2="111" y2="676"/><line x1="106" y1="671" x2="116" y2="671"/>
  <line x1="171" y1="665" x2="171" y2="675"/><line x1="166" y1="670" x2="176" y2="670"/>
  <line x1="231" y1="666" x2="231" y2="676"/><line x1="226" y1="671" x2="236" y2="671"/>
  <line x1="291" y1="665" x2="291" y2="675"/><line x1="286" y1="670" x2="296" y2="670"/>
  <line x1="351" y1="666" x2="351" y2="676"/><line x1="346" y1="671" x2="356" y2="671"/>
  <line x1="411" y1="665" x2="411" y2="675"/><line x1="406" y1="670" x2="416" y2="670"/>
  <!-- Left edge crosses -->
  <line x1="30" y1="75" x2="30" y2="85"/><line x1="25" y1="80" x2="35" y2="80"/>
  <line x1="31" y1="155" x2="31" y2="165"/><line x1="26" y1="160" x2="36" y2="160"/>
  <line x1="30" y1="235" x2="30" y2="245"/><line x1="25" y1="240" x2="35" y2="240"/>
  <line x1="31" y1="315" x2="31" y2="325"/><line x1="26" y1="320" x2="36" y2="320"/>
  <line x1="30" y1="395" x2="30" y2="405"/><line x1="25" y1="400" x2="35" y2="400"/>
  <line x1="31" y1="475" x2="31" y2="485"/><line x1="26" y1="480" x2="36" y2="480"/>
  <line x1="30" y1="555" x2="30" y2="565"/><line x1="25" y1="560" x2="35" y2="560"/>
  <line x1="31" y1="635" x2="31" y2="645"/><line x1="26" y1="640" x2="36" y2="640"/>
  <!-- Right edge crosses -->
  <line x1="470" y1="76" x2="470" y2="86"/><line x1="465" y1="81" x2="475" y2="81"/>
  <line x1="469" y1="156" x2="469" y2="166"/><line x1="464" y1="161" x2="474" y2="161"/>
  <line x1="470" y1="236" x2="470" y2="246"/><line x1="465" y1="241" x2="475" y2="241"/>
  <line x1="469" y1="316" x2="469" y2="326"/><line x1="464" y1="321" x2="474" y2="321"/>
  <line x1="470" y1="396" x2="470" y2="406"/><line x1="465" y1="401" x2="475" y2="401"/>
  <line x1="469" y1="476" x2="469" y2="486"/><line x1="464" y1="481" x2="474" y2="481"/>
  <line x1="470" y1="556" x2="470" y2="566"/><line x1="465" y1="561" x2="475" y2="561"/>
  <line x1="469" y1="636" x2="469" y2="646"/><line x1="464" y1="641" x2="474" y2="641"/>
  <!-- Thin connecting lines between crosses -->
  <line x1="56" y1="30" x2="104" y2="29"/>
  <line x1="116" y1="29" x2="164" y2="30"/>
  <line x1="176" y1="30" x2="224" y2="29"/>
  <line x1="236" y1="29" x2="284" y2="30"/>
  <line x1="296" y1="30" x2="344" y2="29"/>
  <line x1="356" y1="29" x2="404" y2="30"/>
  <line x1="57" y1="670" x2="105" y2="671"/>
  <line x1="117" y1="671" x2="165" y2="670"/>
  <line x1="177" y1="670" x2="225" y2="671"/>
  <line x1="237" y1="671" x2="285" y2="670"/>
  <line x1="297" y1="670" x2="345" y2="671"/>
  <line x1="357" y1="671" x2="405" y2="670"/>
</svg>
