<svg xmlns="http://www.w3.org/2000/svg" viewBox="0 0 500 700" fill="none" stroke="currentColor" stroke-width="1.5" stroke-linecap="round" stroke-linejoin="round">
  <style>:root { color: #1B2438; }</style>

  <!-- Top-left corner mark -->
  <path d="M 20 45 L 20 20 L 45 20" />
  <!-- Small flourish dot -->
  <circle cx="14" cy="14" r="2" />
  <!-- Tiny inner tick -->
  <path d="M 28 28 L 28 32" />
  <path d="M 28 28 L 32 28" />

  <!-- Top-right corner mark -->
  <path d="M 455 20 L 480 20 L 480 45" />
  <!-- Small flourish dot -->
  <circle cx="486" cy="14" r="2" />
  <!-- Tiny inner tick -->
  <path d="M 472 28 L 472 32" />
  <path d="M 472 28 L 468 28" />

  <!-- Bottom-right corner mark -->
  <path d="M 480 655 L 480 680 L 455 680" />
  <!-- Small flourish dot -->
  <circle cx="486" cy="686" r="2" />
  <!-- Tiny inner tick -->
  <path d="M 472 672 L 472 668" />
  <path d="M 472 672 L 468 672" />

  <!-- Bottom-left corner mark -->
  <path d="M 45 680 L 20 680 L 20 655" />
  <!-- Small flourish dot -->
  <circle cx="14" cy="686" r="2" />
  <!-- Tiny inner tick -->
  <path d="M 28 672 L 28 668" />
  <path d="M 28 672 L 32 672" />
</svg>
