<svg xmlns="http://www.w3.org/2000/svg" viewBox="0 0 500 700" stroke="currentColor" fill="none" stroke-width="1.5" stroke-linecap="round" stroke-linejoin="round">
  <style>:root { color: #1B2438; }</style>
  <!-- Main border -->
  <rect x="45" y="45" width="410" height="610" rx="0" ry="0"/>
  <!-- Top-left feather: quill and barbs -->
  <line x1="20" y1="70" x2="70" y2="20"/>
  <ellipse cx="30" cy="60" rx="12" ry="5" transform="rotate(-45 30 60)"/>
  <ellipse cx="42" cy="48" rx="10" ry="4" transform="rotate(-45 42 48)"/>
  <ellipse cx="55" cy="35" rx="8" ry="3.5" transform="rotate(-45 55 35)"/>
  <!-- Top-right feather: quill and barbs -->
  <line x1="480" y1="70" x2="430" y2="20"/>
  <ellipse cx="470" cy="60" rx="12" ry="5" transform="rotate(45 470 60)"/>
  <ellipse cx="458" cy="48" rx="10" ry="4" transform="rotate(45 458 48)"/>
  <ellipse cx="445" cy="35" rx="8" ry="3.5" transform="rotate(45 445 35)"/>
  <!-- Bottom-left feather: quill and barbs -->
  <line x1="20" y1="630" x2="70" y2="680"/>
  <ellipse cx="30" cy="640" rx="12" ry="5" transform="rotate(45 30 640)"/>
  <ellipse cx="42" cy="652" rx="10" ry="4" transform="rotate(45 42 652)"/>
  <ellipse cx="55" cy="665" rx="8" ry="3.5" transform="rotate(45 55 665)"/>
  <!-- Bottom-right feather: quill and barbs -->
  <line x1="480" y1="630" x2="430" y2="680"/>
  <ellipse cx="470" cy="640" rx="12" ry="5" transform="rotate(-45 470 640)"/>
  <ellipse cx="458" cy="652" rx="10" ry="4" transform="rotate(-45 458 652)"/>
  <ellipse cx="445" cy="665" rx="8" ry="3.5" transform="rotate(-45 445 665)"/>
</svg>
