<svg xmlns="http://www.w3.org/2000/svg" viewBox="0 0 500 700" stroke="currentColor" fill="none" stroke-width="1.5" stroke-linecap="round" stroke-linejoin="round">
  <style>:root { color: #1B2438; }</style>
  <!-- Star shapes: 4-pointed stars using polylines -->
  <!-- Top edge stars -->
  <polygon points="70,24 74,29 70,34 66,29"/>
  <polygon points="140,25 144,30 140,35 136,30"/>
  <polygon points="210,24 214,29 210,34 206,29"/>
  <polygon points="280,25 284,30 280,35 276,30"/>
  <polygon points="350,24 354,29 350,34 346,29"/>
  <polygon points="420,25 424,30 420,35 416,30"/>
  <!-- Bottom edge stars -->
  <polygon points="71,666 75,671 71,676 67,671"/>
  <polygon points="141,665 145,670 141,675 137,670"/>
  <polygon points="211,666 215,671 211,676 207,671"/>
  <polygon points="281,665 285,670 281,675 277,670"/>
  <polygon points="351,666 355,671 351,676 347,671"/>
  <polygon points="421,665 425,670 421,675 417,670"/>
  <!-- Left edge stars -->
  <polygon points="30,80 34,85 30,90 26,85"/>
  <polygon points="31,160 35,165 31,170 27,165"/>
  <polygon points="30,240 34,245 30,250 26,245"/>
  <polygon points="31,320 35,325 31,330 27,325"/>
  <polygon points="30,400 34,405 30,410 26,405"/>
  <polygon points="31,480 35,485 31,490 27,485"/>
  <polygon points="30,560 34,565 30,570 26,565"/>
  <polygon points="31,640 35,645 31,650 27,645"/>
  <!-- Right edge stars -->
  <polygon points="470,81 474,86 470,91 466,86"/>
  <polygon points="469,161 473,166 469,171 465,166"/>
  <polygon points="470,241 474,246 470,251 466,246"/>
  <polygon points="469,321 473,326 469,331 465,326"/>
  <polygon points="470,401 474,406 470,411 466,406"/>
  <polygon points="469,481 473,486 469,491 465,486"/>
  <polygon points="470,561 474,566 470,571 466,566"/>
  <polygon points="469,641 473,646 469,651 465,646"/>
  <!-- Thin connecting lines -->
  <line x1="31" y1="30" x2="65" y2="29"/>
  <line x1="75" y1="29" x2="135" y2="30"/>
  <line x1="145" y1="30" x2="205" y2="29"/>
  <line x1="215" y1="29" x2="275" y2="30"/>
  <line x1="285" y1="30" x2="345" y2="29"/>
  <line x1="355" y1="29" x2="415" y2="30"/>
  <line x1="425" y1="30" x2="469" y2="29"/>
  <line x1="32" y1="671" x2="66" y2="671"/>
  <line x1="76" y1="671" x2="136" y2="670"/>
  <line x1="146" y1="670" x2="206" y2="671"/>
  <line x1="216" y1="671" x2="276" y2="670"/>
  <line x1="286" y1="670" x2="346" y2="671"/>
  <line x1="356" y1="671" x2="416" y2="670"/>
  <line x1="426" y1="670" x2="468" y2="671"/>
</svg>
