<svg xmlns="http://www.w3.org/2000/svg" viewBox="0 0 500 700" stroke="currentColor" fill="none" stroke-width="1.5" stroke-linecap="round" stroke-linejoin="round">
  <style>:root { color: #1B2438; }</style>
  <!-- Top edge zigzag -->
  <polyline points="30,35 42,25 54,35 66,25 78,35 90,25 102,35 114,25 126,35 138,25 150,35 162,25 174,35 186,25 198,35 210,25 222,35 234,25 246,35 258,25 270,35 282,25 294,35 306,25 318,35 330,25 342,35 354,25 366,35 378,25 390,35 402,25 414,35 426,25 438,35 450,25 462,35 470,28"/>
  <!-- Bottom edge zigzag -->
  <polyline points="31,665 43,675 55,665 67,675 79,665 91,675 103,665 115,675 127,665 139,675 151,665 163,675 175,665 187,675 199,665 211,675 223,665 235,675 247,665 259,675 271,665 283,675 295,665 307,675 319,665 331,675 343,665 355,675 367,665 379,675 391,665 403,675 415,665 427,675 439,665 451,675 463,665 469,669"/>
  <!-- Left edge zigzag -->
  <polyline points="35,30 25,42 35,54 25,66 35,78 25,90 35,102 25,114 35,126 25,138 35,150 25,162 35,174 25,186 35,198 25,210 35,222 25,234 35,246 25,258 35,270 25,282 35,294 25,306 35,318 25,330 35,342 25,354 35,366 25,378 35,390 25,402 35,414 25,426 35,438 25,450 35,462 25,474 35,486 25,498 35,510 25,522 35,534 25,546 35,558 25,570 35,582 25,594 35,606 25,618 35,630 25,642 35,654 25,666 32,671"/>
  <!-- Right edge zigzag -->
  <polyline points="465,31 475,43 465,55 475,67 465,79 475,91 465,103 475,115 465,127 475,139 465,151 475,163 465,175 475,187 465,199 475,211 465,223 475,235 465,247 475,259 465,271 475,283 465,295 475,307 465,319 475,331 465,343 475,355 465,367 475,379 465,391 475,403 465,415 475,427 465,439 475,451 465,463 475,475 465,487 475,499 465,511 475,523 465,535 475,547 465,559 475,571 465,583 475,595 465,607 475,619 465,631 475,643 465,655 475,667 469,670"/>
</svg>
