<svg xmlns="http://www.w3.org/2000/svg" viewBox="0 0 500 700" fill="none" stroke="currentColor" stroke-width="1.5" stroke-linecap="round" stroke-linejoin="round">
  <style>:root { color: #1B2438; }</style>

  <!-- Outer border (slightly hand-drawn) -->
  <path d="M 50 25 Q 150 24 250 25 Q 350 26 450 25" />
  <path d="M 475 50 Q 476 175 475 350 Q 474 525 475 650" />
  <path d="M 450 675 Q 350 676 250 675 Q 150 674 50 675" />
  <path d="M 25 650 Q 24 525 25 350 Q 26 175 25 50" />

  <!-- Inner border (slightly offset for double-line effect) -->
  <path d="M 58 33 Q 150 32 250 33 Q 350 34 442 33" />
  <path d="M 467 58 Q 468 175 467 350 Q 466 525 467 642" />
  <path d="M 442 667 Q 350 668 250 667 Q 150 666 58 667" />
  <path d="M 33 642 Q 32 525 33 350 Q 34 175 33 58" />

  <!-- Top-left corner diamond -->
  <path d="M 25 25 L 50 25" />
  <path d="M 25 25 L 25 50" />
  <path d="M 33 33 L 58 33" />
  <path d="M 33 33 L 33 58" />
  <!-- Diamond ornament -->
  <path d="M 25 25 L 18 18" />
  <path d="M 12 12 L 18 6 L 24 12 L 18 18 Z" />
  <circle cx="18" cy="12" r="2" />

  <!-- Top-right corner diamond -->
  <path d="M 475 25 L 450 25" />
  <path d="M 475 25 L 475 50" />
  <path d="M 467 33 L 442 33" />
  <path d="M 467 33 L 467 58" />
  <!-- Diamond ornament -->
  <path d="M 475 25 L 482 18" />
  <path d="M 488 12 L 482 6 L 476 12 L 482 18 Z" />
  <circle cx="482" cy="12" r="2" />

  <!-- Bottom-right corner diamond -->
  <path d="M 475 675 L 450 675" />
  <path d="M 475 675 L 475 650" />
  <path d="M 467 667 L 442 667" />
  <path d="M 467 667 L 467 642" />
  <!-- Diamond ornament -->
  <path d="M 475 675 L 482 682" />
  <path d="M 488 688 L 482 694 L 476 688 L 482 682 Z" />
  <circle cx="482" cy="688" r="2" />

  <!-- Bottom-left corner diamond -->
  <path d="M 25 675 L 50 675" />
  <path d="M 25 675 L 25 650" />
  <path d="M 33 667 L 58 667" />
  <path d="M 33 667 L 33 642" />
  <!-- Diamond ornament -->
  <path d="M 25 675 L 18 682" />
  <path d="M 12 688 L 18 694 L 24 688 L 18 682 Z" />
  <circle cx="18" cy="688" r="2" />

  <!-- Top edge chevron accents -->
  <path d="M 180 22 L 185 17 L 190 22" />
  <path d="M 310 22 L 315 17 L 320 22" />

  <!-- Bottom edge chevron accents -->
  <path d="M 180 678 L 185 683 L 190 678" />
  <path d="M 310 678 L 315 683 L 320 678" />

  <!-- Left edge chevron accents -->
  <path d="M 22 270 L 17 275 L 22 280" />
  <path d="M 22 420 L 17 425 L 22 430" />

  <!-- Right edge chevron accents -->
  <path d="M 478 270 L 483 275 L 478 280" />
  <path d="M 478 420 L 483 425 L 478 430" />
</svg>
