<svg xmlns="http://www.w3.org/2000/svg" viewBox="0 0 500 700" stroke="currentColor" fill="none" stroke-width="1.5" stroke-linecap="round" stroke-linejoin="round">
  <style>:root { color: #1B2438; }</style>
  <!-- Main border -->
  <rect x="45" y="45" width="410" height="610" rx="0" ry="0"/>
  <!-- Top-left confetti -->
  <rect x="18" y="22" width="6" height="6" transform="rotate(30 21 25)"/>
  <circle cx="32" cy="18" r="3"/>
  <polygon points="15,50 18,42 21,50"/>
  <!-- Top-right confetti -->
  <rect x="470" y="28" width="6" height="6" transform="rotate(-20 473 31)"/>
  <circle cx="462" cy="18" r="3"/>
  <polygon points="478,55 481,47 484,55"/>
  <!-- Bottom-left confetti -->
  <circle cx="22" cy="665" r="3"/>
  <rect x="30" y="672" width="6" height="6" transform="rotate(45 33 675)"/>
  <polygon points="12,648 15,640 18,648"/>
  <!-- Bottom-right confetti -->
  <circle cx="478" cy="660" r="3"/>
  <rect x="465" y="675" width="6" height="6" transform="rotate(-30 468 678)"/>
  <polygon points="480,640 483,632 486,640"/>
  <!-- Left edge confetti -->
  <circle cx="20" cy="200" r="2.5"/>
  <rect x="15" y="380" width="5" height="5" transform="rotate(25 17 382)"/>
  <!-- Right edge confetti -->
  <circle cx="480" cy="300" r="2.5"/>
  <rect x="475" y="450" width="5" height="5" transform="rotate(-35 477 452)"/>
  <!-- Top edge confetti -->
  <polygon points="200,18 203,10 206,18"/>
  <circle cx="350" cy="20" r="2.5"/>
</svg>
