<svg xmlns="http://www.w3.org/2000/svg" viewBox="0 0 120 150" stroke="currentColor" fill="none" stroke-width="2.5" stroke-linecap="round" stroke-linejoin="round">
  <style>:root { color: #1B2438; }</style>
  <!-- Kash head -->
  <circle cx="48" cy="60" r="7"/>
  <circle cx="46" cy="59" r="1.5" fill="currentColor" stroke="none"/>
  <!-- Kash body -->
  <line x1="48" y1="67" x2="48" y2="95"/>
  <polygon points="40,95 48,95 56,125"/>
  <!-- Kash arm holding strings -->
  <line x1="48" y1="76" x2="38" y2="66"/>
  <!-- Max head -->
  <circle cx="72" cy="52" r="8"/>
  <circle cx="70" cy="51" r="1.5" fill="currentColor" stroke="none"/>
  <!-- Max body -->
  <line x1="72" y1="60" x2="72" y2="92"/>
  <line x1="72" y1="92" x2="66" y2="125"/>
  <line x1="72" y1="92" x2="78" y2="125"/>
  <!-- Max arm holding strings -->
  <line x1="72" y1="70" x2="82" y2="58"/>
  <!-- Balloon strings -->
  <line x1="38" y1="66" x2="32" y2="30"/>
  <line x1="38" y1="66" x2="44" y2="28"/>
  <line x1="82" y1="58" x2="78" y2="22"/>
  <line x1="82" y1="58" x2="88" y2="20"/>
  <!-- Balloons -->
  <ellipse cx="32" cy="22" rx="7" ry="9"/>
  <ellipse cx="44" cy="20" rx="7" ry="9"/>
  <ellipse cx="78" cy="14" rx="7" ry="9"/>
  <ellipse cx="88" cy="12" rx="7" ry="9"/>
</svg>
