<svg xmlns="http://www.w3.org/2000/svg" viewBox="0 0 120 140" stroke="currentColor" fill="none" stroke-width="2.5" stroke-linecap="round" stroke-linejoin="round">
  <style>:root { color: #1B2438; }</style>
  <!-- Confetti pieces -->
  <rect x="18" y="12" width="4" height="4"/>
  <rect x="42" y="8" width="4" height="4"/>
  <rect x="72" y="14" width="4" height="4"/>
  <rect x="98" y="10" width="4" height="4"/>
  <rect x="28" y="30" width="3" height="3"/>
  <rect x="88" y="28" width="3" height="3"/>
  <!-- Kash head -->
  <circle cx="42" cy="46" r="8"/>
  <circle cx="44" cy="45" r="1.5" fill="currentColor" stroke="none"/>
  <!-- Kash body -->
  <line x1="42" y1="54" x2="42" y2="78"/>
  <polygon points="34,78 50,78 48,112 36,112"/>
  <line x1="42" y1="62" x2="32" y2="52"/>
  <line x1="42" y1="62" x2="52" y2="74"/>
  <!-- Max head -->
  <circle cx="76" cy="40" r="8"/>
  <circle cx="74" cy="39" r="1.5" fill="currentColor" stroke="none"/>
  <!-- Max body -->
  <line x1="76" y1="48" x2="76" y2="76"/>
  <line x1="76" y1="76" x2="70" y2="115"/>
  <line x1="76" y1="76" x2="82" y2="115"/>
  <line x1="76" y1="58" x2="86" y2="48"/>
</svg>
