<svg xmlns="http://www.w3.org/2000/svg" viewBox="0 0 120 150" stroke="currentColor" fill="none" stroke-width="2" stroke-linecap="round" stroke-linejoin="round">
  <style>:root { color: #1B2438; }</style>
  <!-- Horizon line -->
  <line x1="0" y1="105" x2="120" y2="105" />
  <!-- Sun (half circle at horizon) -->
  <path d="M 38 105 C 38 88, 48 78, 60 78 C 72 78, 82 88, 82 105" />
  <!-- Sun rays -->
  <path d="M 60 72 L 60 66" />
  <path d="M 42 80 L 37 75" />
  <path d="M 78 80 L 83 75" />
  <path d="M 34 94 L 28 92" />
  <path d="M 86 94 L 92 92" />

  <!-- Kash (walking toward sun, silhouette) -->
  <ellipse cx="38" cy="66" rx="6" ry="7" />
  <path d="M 32 62 C 30 56, 33 52, 38 52 C 43 52, 46 56, 44 62" />
  <!-- Kash torso -->
  <path d="M 34 73 C 32 78, 32 84, 32 88" />
  <path d="M 42 73 C 44 78, 44 84, 44 88" />
  <!-- Kash dress/legs -->
  <path d="M 32 88 C 30 94, 28 100, 26 108" />
  <path d="M 44 88 C 46 94, 48 100, 50 108" />
  <!-- Kash arm (holding hands with Max) -->
  <path d="M 42 80 C 46 78, 50 76, 54 76" />

  <!-- Max (walking beside, slightly ahead) -->
  <ellipse cx="58" cy="58" rx="6.5" ry="8" />
  <path d="M 52 54 C 51 50, 53 46, 58 46 C 63 46, 65 50, 64 54" />
  <!-- Max torso -->
  <path d="M 52 66 C 50 72, 50 80, 50 86" />
  <path d="M 64 66 C 66 72, 66 80, 66 86" />
  <!-- Max legs (walking stride) -->
  <path d="M 50 86 C 48 92, 46 100, 44 108" />
  <path d="M 66 86 C 68 92, 70 100, 72 108" />
  <!-- Max arm (holding hands with Kash) -->
  <path d="M 52 76 C 50 76, 54 76, 54 76" />
  <!-- Max other arm -->
  <path d="M 64 74 C 68 78, 72 82, 74 86" />
  <!-- Joined hands -->
  <circle cx="54" cy="76" r="1.5" fill="currentColor" stroke="none" />
</svg>
