<svg xmlns="http://www.w3.org/2000/svg" viewBox="0 0 160 130" stroke="currentColor" fill="none" stroke-width="2" stroke-linecap="round" stroke-linejoin="round">
  <style>:root { color: #1B2438; }</style>
  <!-- Kash (left) -->
  <ellipse cx="36" cy="22" rx="7" ry="8" />
  <path d="M 29 18 C 27 12, 30 8, 36 8 C 42 8, 45 12, 43 18" />
  <circle cx="38" cy="21" r="1.2" fill="currentColor" stroke="none" />
  <!-- Kash torso -->
  <path d="M 32 30 C 30 38, 28 48, 28 56" />
  <path d="M 40 30 C 42 38, 44 48, 44 56" />
  <!-- Kash dress -->
  <path d="M 28 56 C 24 68, 22 80, 22 92" />
  <path d="M 44 56 C 46 68, 48 80, 48 92" />
  <!-- Kash arm (on hip) -->
  <path d="M 32 40 C 26 44, 22 48, 22 52" />
  <!-- Kash arm (reaching to Max) -->
  <path d="M 40 42 C 46 44, 52 46, 56 48" />

  <!-- Max (right) -->
  <ellipse cx="120" cy="16" rx="7.5" ry="9" />
  <path d="M 113 12 C 112 8, 114 4, 120 4 C 126 4, 128 8, 127 12" />
  <circle cx="118" cy="15" r="1.2" fill="currentColor" stroke="none" />
  <!-- Max torso -->
  <path d="M 114 25 C 112 32, 110 42, 110 52" />
  <path d="M 126 25 C 128 32, 130 42, 130 52" />
  <!-- Max legs -->
  <path d="M 110 52 C 108 64, 106 78, 106 92" />
  <path d="M 130 52 C 132 64, 134 78, 136 92" />
  <!-- Max arm (holding hands with Kash) -->
  <path d="M 114 38 C 108 42, 62 48, 56 48" />
  <!-- Max arm (behind) -->
  <path d="M 126 36 C 132 40, 138 46, 140 50" />

  <!-- Moose bulldog (between them) -->
  <path d="M 68 88 C 66 78, 72 72, 80 70 C 84 69, 90 69, 94 70 C 102 72, 108 78, 106 88 C 106 92, 104 96, 100 98" />
  <path d="M 68 88 C 68 92, 70 96, 74 98" />
  <!-- Dog ears -->
  <path d="M 72 78 C 68 72, 64 70, 62 74 C 62 78, 66 80, 70 80" />
  <path d="M 102 78 C 106 72, 110 70, 112 74 C 112 78, 108 80, 104 80" />
  <!-- Dog eyes -->
  <circle cx="78" cy="84" r="2.5" fill="currentColor" />
  <circle cx="96" cy="84" r="2.5" fill="currentColor" />
  <circle cx="77" cy="83" r="0.8" fill="white" stroke="none" />
  <circle cx="95" cy="83" r="0.8" fill="white" stroke="none" />
  <!-- Dog nose -->
  <path d="M 82 90 C 82 88, 86 86, 90 88 C 92 89, 92 92, 88 92 C 84 92, 82 91, 82 90" />
  <!-- Dog body -->
  <path d="M 72 98 C 68 102, 66 108, 66 114" />
  <path d="M 102 98 C 106 102, 108 108, 108 114" />
  <!-- Dog legs -->
  <path d="M 72 110 C 72 116, 72 120, 72 124" />
  <path d="M 80 112 C 80 118, 80 122, 80 124" />
  <path d="M 94 112 C 94 118, 94 122, 94 124" />
  <path d="M 102 110 C 102 116, 102 120, 102 124" />
  <!-- Dog paws -->
  <path d="M 68 124 C 72 126, 76 126, 84 124" />
  <path d="M 90 124 C 94 126, 98 126, 106 124" />
  <!-- Dog tail -->
  <path d="M 108 108 C 114 104, 116 98, 114 94" />
</svg>
