<svg xmlns="http://www.w3.org/2000/svg" viewBox="0 0 120 150" stroke="currentColor" fill="none" stroke-width="2" stroke-linecap="round" stroke-linejoin="round">
  <style>:root { color: #1B2438; }</style>
  <!-- Kash (left, celebrating) -->
  <ellipse cx="36" cy="38" rx="7" ry="8" />
  <path d="M 29 34 C 27 28, 30 24, 36 24 C 42 24, 45 28, 43 34" />
  <circle cx="34" cy="37" r="1.2" fill="currentColor" stroke="none" />
  <!-- Kash torso -->
  <path d="M 32 46 C 30 52, 28 60, 28 68" />
  <path d="M 40 46 C 42 52, 44 60, 44 68" />
  <!-- Kash dress skirt -->
  <path d="M 28 68 C 24 80, 22 92, 22 106" />
  <path d="M 44 68 C 46 80, 48 92, 50 106" />
  <path d="M 22 106 C 30 108, 42 108, 50 106" />
  <!-- Kash arm (raised celebrating) -->
  <path d="M 32 52 C 28 46, 24 40, 22 34 C 22 32, 24 30, 26 30" />
  <!-- Kash other arm (on Max) -->
  <path d="M 40 54 C 46 52, 52 50, 56 48" />

  <!-- Max (right, holding bottle) -->
  <ellipse cx="70" cy="30" rx="7.5" ry="9" />
  <path d="M 63 26 C 62 22, 64 18, 70 18 C 76 18, 78 22, 77 26" />
  <circle cx="68" cy="29" r="1.2" fill="currentColor" stroke="none" />
  <!-- Max torso (jacket) -->
  <path d="M 64 39 C 62 46, 60 56, 60 66" />
  <path d="M 76 39 C 78 46, 80 56, 80 66" />
  <!-- Max legs -->
  <path d="M 60 66 C 58 78, 56 92, 54 108" />
  <path d="M 80 66 C 82 78, 84 92, 86 108" />
  <!-- Max arm holding bottle up -->
  <path d="M 76 46 C 82 40, 86 34, 88 28" />

  <!-- Champagne bottle -->
  <path d="M 86 18 C 86 14, 88 10, 90 10 C 92 10, 94 14, 94 18" />
  <path d="M 86 18 L 86 30 C 86 32, 94 32, 94 30 L 94 18" />
  <!-- Cork/spray -->
  <path d="M 88 10 C 86 4, 82 0, 80 2" />
  <path d="M 92 10 C 94 4, 98 0, 100 2" />
  <!-- Spray lines (celebratory) -->
  <path d="M 90 8 C 88 2, 86 0, 84 2" />
  <path d="M 90 8 C 90 2, 90 0, 90 0" />
  <path d="M 90 8 C 92 2, 96 0, 98 2" />
  <path d="M 90 8 C 86 4, 80 4, 78 6" />
  <path d="M 90 8 C 94 4, 100 4, 102 6" />
  <!-- Spray drops -->
  <circle cx="82" cy="6" r="1" />
  <circle cx="96" cy="4" r="1" />
  <circle cx="78" cy="12" r="0.8" />
  <circle cx="102" cy="10" r="0.8" />
</svg>
