<svg xmlns="http://www.w3.org/2000/svg" viewBox="0 0 120 150" stroke="currentColor" fill="none" stroke-width="2" stroke-linecap="round" stroke-linejoin="round">
  <style>:root { color: #1B2438; }</style>
  <!-- Ornamental frame outer -->
  <path d="M 14 8 C 14 4, 18 2, 22 2 L 98 2 C 102 2, 106 4, 106 8 L 106 142 C 106 146, 102 148, 98 148 L 22 148 C 18 148, 14 146, 14 142 Z" />
  <!-- Ornamental frame inner -->
  <path d="M 22 14 C 22 12, 24 10, 26 10 L 94 10 C 96 10, 98 12, 98 14 L 98 136 C 98 138, 96 140, 94 140 L 26 140 C 24 140, 22 138, 22 136 Z" />
  <!-- Frame corner details (ornate curves) -->
  <path d="M 14 8 C 10 4, 8 8, 12 12" stroke-width="1.5" />
  <path d="M 106 8 C 110 4, 112 8, 108 12" stroke-width="1.5" />
  <path d="M 14 142 C 10 146, 8 142, 12 138" stroke-width="1.5" />
  <path d="M 106 142 C 110 146, 112 142, 108 138" stroke-width="1.5" />

  <!-- Kash (inside frame, facing Max) -->
  <ellipse cx="46" cy="48" rx="7" ry="8" />
  <path d="M 39 44 C 37 38, 40 34, 46 34 C 52 34, 55 38, 53 44" />
  <circle cx="48" cy="47" r="1.2" fill="currentColor" stroke="none" />
  <!-- Kash torso -->
  <path d="M 42 56 C 40 62, 38 72, 38 80" />
  <path d="M 50 56 C 52 62, 54 72, 54 80" />
  <!-- Kash dress -->
  <path d="M 38 80 C 34 92, 32 104, 32 118" />
  <path d="M 54 80 C 56 92, 56 104, 56 118" />
  <path d="M 32 118 C 40 120, 48 120, 56 118" />
  <!-- Kash arm (touching Max) -->
  <path d="M 50 64 C 56 62, 62 60, 66 58" />

  <!-- Max (inside frame, facing Kash) -->
  <ellipse cx="72" cy="40" rx="7.5" ry="9" />
  <path d="M 65 36 C 64 32, 66 28, 72 28 C 78 28, 80 32, 79 36" />
  <circle cx="70" cy="39" r="1.2" fill="currentColor" stroke="none" />
  <!-- Max torso -->
  <path d="M 66 49 C 64 56, 62 66, 62 76" />
  <path d="M 78 49 C 80 56, 82 66, 82 76" />
  <!-- Max legs -->
  <path d="M 62 76 C 60 88, 58 100, 58 118" />
  <path d="M 82 76 C 84 88, 86 100, 88 118" />
  <!-- Max arm (around Kash) -->
  <path d="M 66 58 C 60 64, 52 70, 46 74" />
</svg>
