<svg xmlns="http://www.w3.org/2000/svg" viewBox="0 0 120 150" stroke="currentColor" fill="none" stroke-width="2" stroke-linecap="round" stroke-linejoin="round">
  <style>:root { color: #1B2438; }</style>
  <!-- Kash (left, close embrace) -->
  <ellipse cx="50" cy="32" rx="7" ry="8" />
  <path d="M 43 28 C 41 22, 44 18, 50 18 C 56 18, 59 22, 57 28" />
  <circle cx="48" cy="31" r="1.2" fill="currentColor" stroke="none" />
  <!-- Kash torso -->
  <path d="M 46 40 C 44 46, 42 54, 42 62" />
  <path d="M 54 40 C 56 46, 58 54, 58 62" />
  <!-- Kash dress (elegant, close) -->
  <path d="M 42 62 C 38 74, 36 86, 36 100 C 36 104, 38 108, 40 110" />
  <path d="M 58 62 C 60 74, 62 86, 64 100 C 64 104, 62 108, 60 110" />
  <path d="M 40 110 C 46 112, 54 112, 60 110" />
  <!-- Kash arm (on Max shoulder) -->
  <path d="M 54 48 C 58 44, 62 40, 66 38" />
  <!-- Kash arm (hand held out, dancing position) -->
  <path d="M 46 50 C 40 46, 34 42, 30 40" />

  <!-- Max (right, close embrace) -->
  <ellipse cx="68" cy="24" rx="7.5" ry="9" />
  <path d="M 61 20 C 60 16, 62 12, 68 12 C 74 12, 76 16, 75 20" />
  <circle cx="66" cy="23" r="1.2" fill="currentColor" stroke="none" />
  <!-- Max torso (jacket, close to Kash) -->
  <path d="M 62 33 C 60 40, 58 50, 58 58" />
  <path d="M 74 33 C 76 40, 78 50, 78 58" />
  <!-- Max legs -->
  <path d="M 58 58 C 56 70, 54 84, 52 100 C 52 104, 54 108, 56 110" />
  <path d="M 78 58 C 80 70, 82 84, 84 100 C 84 104, 82 108, 80 110" />
  <!-- Max arm (around Kash waist) -->
  <path d="M 62 44 C 58 50, 52 56, 48 60" />
  <!-- Max arm (reaching to Kash hand, dancing hold) -->
  <path d="M 74 42 C 68 42, 38 40, 30 40" />
  <!-- Hands meeting -->
  <circle cx="30" cy="40" r="2" fill="currentColor" stroke="none" />
</svg>
