<svg xmlns="http://www.w3.org/2000/svg" viewBox="0 0 120 150" stroke="currentColor" fill="none" stroke-width="2" stroke-linecap="round" stroke-linejoin="round">
  <style>:root { color: #1B2438; }</style>
  <!-- Kash head (oval with hair suggestion) -->
  <ellipse cx="48" cy="28" rx="7" ry="8" />
  <path d="M 41 24 C 39 18, 42 14, 48 14 C 54 14, 57 18, 55 24" />
  <circle cx="46" cy="27" r="1.2" fill="currentColor" stroke="none" />
  <!-- Kash torso (dress silhouette) -->
  <path d="M 44 36 C 42 40, 40 48, 40 56 C 40 60, 42 64, 44 68" />
  <path d="M 52 36 C 54 40, 56 48, 56 56 C 56 60, 54 64, 52 68" />
  <!-- Kash dress skirt (flowing) -->
  <path d="M 44 68 C 38 78, 32 90, 30 104 C 30 108, 34 110, 38 108" />
  <path d="M 52 68 C 56 78, 60 90, 62 104 C 62 108, 58 110, 54 108" />
  <path d="M 30 104 C 38 106, 50 106, 62 104" />
  <!-- Kash arm (reaching to Max) -->
  <path d="M 52 44 C 58 40, 66 36, 74 38" />
  <!-- Kash arm (held out gracefully) -->
  <path d="M 44 46 C 38 42, 32 38, 28 34" />
  <!-- Max head (oval, slightly taller) -->
  <ellipse cx="72" cy="22" rx="7.5" ry="9" />
  <path d="M 65 18 C 64 14, 66 10, 72 10 C 78 10, 80 14, 79 18" />
  <circle cx="70" cy="21" r="1.2" fill="currentColor" stroke="none" />
  <!-- Max torso (jacket silhouette) -->
  <path d="M 66 31 C 64 38, 62 48, 62 56 C 62 60, 64 66, 66 70" />
  <path d="M 78 31 C 80 38, 82 48, 82 56 C 82 60, 80 66, 78 70" />
  <!-- Max legs -->
  <path d="M 66 70 C 64 80, 62 92, 60 108" />
  <path d="M 78 70 C 80 80, 82 92, 84 108" />
  <!-- Max arm (around Kash waist) -->
  <path d="M 66 42 C 60 48, 54 54, 50 58" />
  <!-- Max arm (reaching to Kash hand) -->
  <path d="M 78 40 C 84 36, 88 32, 28 34" />
  <!-- Joined hands above -->
  <path d="M 78 40 C 80 38, 30 32, 28 34" />
</svg>
