<svg xmlns="http://www.w3.org/2000/svg" viewBox="0 0 120 150" fill="none" stroke="currentColor" stroke-width="2" stroke-linecap="round" stroke-linejoin="round">
  <style>:root { color: #1B2438; }</style>

  <!-- Taller figure (Max) -- head -->
  <circle cx="42" cy="22" r="8" />
  <!-- Eyes and smile -->
  <circle cx="39" cy="21" r="1" fill="currentColor" />
  <circle cx="45" cy="21" r="1" fill="currentColor" />
  <path d="M 39 25 Q 42 28 45 25" />

  <!-- Max body -- suit jacket suggestion -->
  <path d="M 42 30 C 34 35 30 50 32 70" />
  <path d="M 42 30 C 50 35 52 50 48 70" />
  <!-- Jacket lapel lines -->
  <line x1="40" y1="33" x2="38" y2="45" />
  <line x1="44" y1="33" x2="46" y2="45" />

  <!-- Max legs -->
  <path d="M 34 70 C 30 90 28 110 32 135" />
  <path d="M 46 70 C 50 85 52 105 48 135" />

  <!-- Shorter figure (Kash) -- head -->
  <circle cx="72" cy="32" r="8" />
  <!-- Eyes and smile -->
  <circle cx="69" cy="31" r="1" fill="currentColor" />
  <circle cx="75" cy="31" r="1" fill="currentColor" />
  <path d="M 69 35 Q 72 38 75 35" />

  <!-- Kash body -- dress flowing out -->
  <path d="M 72 40 C 64 48 58 60 52 85" />
  <path d="M 72 40 C 80 48 86 65 88 85" />
  <!-- Dress hem curve -->
  <path d="M 52 85 Q 70 92 88 85" />

  <!-- Arms interlinked -->
  <path d="M 34 42 C 28 38 30 32 38 35" />
  <path d="M 50 42 C 56 38 62 40 64 45" />
  <path d="M 80 45 C 86 40 90 36 88 42" />
</svg>
