<svg xmlns="http://www.w3.org/2000/svg" viewBox="0 0 130 130" stroke="currentColor" fill="none" stroke-width="2.5" stroke-linecap="round" stroke-linejoin="round">
  <style>:root { color: #1B2438; }</style>
  <!-- Kash head -->
  <circle cx="42" cy="30" r="8"/>
  <circle cx="44" cy="29" r="1.5" fill="currentColor" stroke="none"/>
  <!-- Kash body -->
  <line x1="42" y1="38" x2="42" y2="65"/>
  <polygon points="34,65 50,65 48,98 36,98"/>
  <line x1="42" y1="48" x2="32" y2="60"/>
  <!-- Kash arm with glass -->
  <line x1="42" y1="48" x2="55" y2="32"/>
  <!-- Kash glass (triangle) -->
  <polygon points="51,24 55,32 59,24"/>
  <line x1="55" y1="32" x2="55" y2="36"/>
  <!-- Max head -->
  <circle cx="85" cy="24" r="8"/>
  <circle cx="83" cy="23" r="1.5" fill="currentColor" stroke="none"/>
  <!-- Max body -->
  <line x1="85" y1="32" x2="85" y2="62"/>
  <line x1="85" y1="62" x2="79" y2="100"/>
  <line x1="85" y1="62" x2="91" y2="100"/>
  <line x1="85" y1="44" x2="95" y2="58"/>
  <!-- Max arm with glass -->
  <line x1="85" y1="44" x2="72" y2="28"/>
  <!-- Max glass (triangle) -->
  <polygon points="68,20 72,28 76,20"/>
  <line x1="72" y1="28" x2="72" y2="32"/>
</svg>
