<svg xmlns="http://www.w3.org/2000/svg" viewBox="0 0 120 150" stroke="currentColor" fill="none" stroke-width="2.5" stroke-linecap="round" stroke-linejoin="round">
  <style>:root { color: #1B2438; }</style>
  <!-- Kash head -->
  <circle cx="40" cy="32" r="8"/>
  <circle cx="38" cy="31" r="1.5" fill="currentColor" stroke="none"/>
  <!-- Kash body -->
  <line x1="40" y1="40" x2="40" y2="72"/>
  <polygon points="32,72 40,72 48,100"/>
  <!-- Kash arm stirring -->
  <line x1="40" y1="52" x2="55" y2="62"/>
  <!-- Max head -->
  <circle cx="80" cy="24" r="8"/>
  <circle cx="78" cy="23" r="1.5" fill="currentColor" stroke="none"/>
  <!-- Max body -->
  <line x1="80" y1="32" x2="80" y2="68"/>
  <line x1="80" y1="68" x2="74" y2="105"/>
  <line x1="80" y1="68" x2="86" y2="105"/>
  <!-- Max arm holding pan -->
  <line x1="80" y1="48" x2="65" y2="62"/>
  <!-- Shared pot -->
  <rect x="50" y="62" width="20" height="14" rx="2"/>
  <!-- Spoon -->
  <line x1="55" y1="62" x2="53" y2="52"/>
  <!-- Steam lines -->
  <line x1="56" y1="58" x2="56" y2="52"/>
  <line x1="60" y1="56" x2="60" y2="50"/>
  <line x1="64" y1="58" x2="64" y2="52"/>
</svg>
