<svg xmlns="http://www.w3.org/2000/svg" viewBox="0 0 120 150" stroke="currentColor" fill="none" stroke-width="2.5" stroke-linecap="round" stroke-linejoin="round">
  <style>:root { color: #1B2438; }</style>
  <!-- Ornamental frame outer -->
  <rect x="10" y="8" width="100" height="134" rx="4"/>
  <!-- Ornamental frame inner -->
  <rect x="18" y="16" width="84" height="118" rx="3"/>
  <!-- Frame corner details (small diamonds) -->
  <polygon points="14,14 18,10 22,14 18,18"/>
  <polygon points="98,14 102,10 106,14 102,18"/>
  <polygon points="14,136 18,132 22,136 18,140"/>
  <polygon points="98,136 102,132 106,136 102,140"/>
  <!-- Kash head -->
  <circle cx="48" cy="52" r="7"/>
  <circle cx="46" cy="51" r="1.5" fill="currentColor" stroke="none"/>
  <!-- Kash body -->
  <line x1="48" y1="59" x2="48" y2="90"/>
  <polygon points="40,90 48,90 56,120"/>
  <!-- Kash arm -->
  <line x1="48" y1="68" x2="60" y2="64"/>
  <!-- Max head -->
  <circle cx="70" cy="44" r="8"/>
  <circle cx="68" cy="43" r="1.5" fill="currentColor" stroke="none"/>
  <!-- Max body -->
  <line x1="70" y1="52" x2="70" y2="86"/>
  <line x1="70" y1="86" x2="64" y2="120"/>
  <line x1="70" y1="86" x2="76" y2="120"/>
  <!-- Max arm (around Kash) -->
  <line x1="70" y1="64" x2="52" y2="68"/>
</svg>
