<svg xmlns="http://www.w3.org/2000/svg" viewBox="0 0 100 120" stroke="currentColor" fill="none" stroke-width="2.5" stroke-linecap="round" stroke-linejoin="round">
  <style>:root { color: #1B2438; }</style>
  <!-- Kash head -->
  <circle cx="32" cy="30" r="8"/>
  <circle cx="34" cy="29" r="1.5" fill="currentColor" stroke="none"/>
  <!-- Kash body -->
  <line x1="32" y1="38" x2="32" y2="62"/>
  <polygon points="24,62 40,62 38,95 26,95"/>
  <line x1="32" y1="48" x2="22" y2="58"/>
  <!-- Max head -->
  <circle cx="68" cy="24" r="8"/>
  <circle cx="66" cy="23" r="1.5" fill="currentColor" stroke="none"/>
  <!-- Max body -->
  <line x1="68" y1="32" x2="68" y2="60"/>
  <line x1="68" y1="60" x2="62" y2="98"/>
  <line x1="68" y1="60" x2="74" y2="98"/>
  <line x1="68" y1="44" x2="78" y2="56"/>
  <!-- Heart shape made by joined hands -->
  <polyline points="32,48 40,38 50,30 50,40 50,30 60,38 68,44"/>
  <line x1="40" y1="38" x2="50" y2="48"/>
  <line x1="60" y1="38" x2="50" y2="48"/>
</svg>
