<svg xmlns="http://www.w3.org/2000/svg" viewBox="0 0 140 130" stroke="currentColor" fill="none" stroke-width="2.5" stroke-linecap="round" stroke-linejoin="round">
  <style>:root { color: #1B2438; }</style>
  <!-- Kash head -->
  <circle cx="50" cy="24" r="8"/>
  <circle cx="48" cy="23" r="1.5" fill="currentColor" stroke="none"/>
  <circle cx="52" cy="23" r="1.5" fill="currentColor" stroke="none"/>
  <!-- Kash body -->
  <line x1="50" y1="32" x2="50" y2="60"/>
  <polygon points="40,60 50,60 60,60 55,95 45,95"/>
  <line x1="50" y1="42" x2="62" y2="55"/>
  <line x1="50" y1="42" x2="38" y2="55"/>
  <!-- Max head -->
  <circle cx="90" cy="18" r="8"/>
  <circle cx="88" cy="17" r="1.5" fill="currentColor" stroke="none"/>
  <circle cx="92" cy="17" r="1.5" fill="currentColor" stroke="none"/>
  <!-- Max body -->
  <line x1="90" y1="26" x2="90" y2="60"/>
  <line x1="90" y1="60" x2="84" y2="100"/>
  <line x1="90" y1="60" x2="96" y2="100"/>
  <line x1="90" y1="40" x2="78" y2="55"/>
  <line x1="90" y1="40" x2="102" y2="55"/>
  <!-- Hands linked -->
  <line x1="62" y1="55" x2="78" y2="55"/>
</svg>
