<svg xmlns="http://www.w3.org/2000/svg" viewBox="0 0 140 130" stroke="currentColor" fill="none" stroke-width="2" stroke-linecap="round" stroke-linejoin="round">
  <style>:root { color: #1B2438; }</style>
  <!-- Kash (from behind, left) -->
  <!-- Head with hair -->
  <ellipse cx="46" cy="22" rx="7" ry="8" />
  <path d="M 39 18 C 37 12, 40 8, 46 8 C 52 8, 55 12, 53 18" />
  <path d="M 39 22 C 36 28, 38 34, 42 34" />
  <!-- Torso (dress back) -->
  <path d="M 42 30 C 40 36, 38 44, 38 52 C 38 56, 40 58, 42 60" />
  <path d="M 50 30 C 52 36, 54 44, 54 52 C 54 56, 52 58, 50 60" />
  <!-- Dress skirt (A-line, walking) -->
  <path d="M 42 60 C 36 70, 32 80, 30 92" />
  <path d="M 50 60 C 54 70, 56 80, 58 92" />
  <!-- Legs (walking) -->
  <path d="M 36 92 C 34 98, 34 104, 36 110" />
  <path d="M 52 92 C 54 98, 56 104, 54 110" />
  <!-- Kash arm (reaching to Max) -->
  <path d="M 50 40 C 56 42, 62 44, 68 46" />
  <!-- Kash other arm (swinging) -->
  <path d="M 42 42 C 36 46, 30 52, 28 56" />

  <!-- Max (from behind, right) -->
  <!-- Head -->
  <ellipse cx="88" cy="16" rx="7.5" ry="9" />
  <path d="M 81 12 C 80 8, 82 4, 88 4 C 94 4, 96 8, 95 12" />
  <!-- Torso (jacket back) -->
  <path d="M 82 25 C 80 32, 78 42, 78 50 C 78 54, 80 56, 82 58" />
  <path d="M 94 25 C 96 32, 98 42, 98 50 C 98 54, 96 56, 94 58" />
  <!-- Legs (walking) -->
  <path d="M 82 58 C 80 68, 78 80, 76 92 C 76 98, 78 104, 80 110" />
  <path d="M 94 58 C 96 68, 98 80, 100 92 C 100 98, 102 104, 104 110" />
  <!-- Max arm (reaching to Kash, hands linked) -->
  <path d="M 82 38 C 78 40, 72 44, 68 46" />
  <!-- Max other arm (swinging) -->
  <path d="M 94 40 C 100 44, 106 50, 108 54" />
  <!-- Linked hands (small heart shape between) -->
  <circle cx="68" cy="46" r="2" fill="currentColor" stroke="none" />
</svg>
