<svg xmlns="http://www.w3.org/2000/svg" viewBox="0 0 120 150" stroke="currentColor" fill="none" stroke-width="2.5" stroke-linecap="round" stroke-linejoin="round">
  <style>:root { color: #1B2438; }</style>
  <!-- Kash head -->
  <circle cx="50" cy="40" r="7"/>
  <circle cx="48" cy="39" r="1.5" fill="currentColor" stroke="none"/>
  <!-- Kash body -->
  <line x1="50" y1="47" x2="50" y2="78"/>
  <polygon points="42,78 50,78 58,108"/>
  <!-- Kash arm (huddling close) -->
  <line x1="50" y1="56" x2="62" y2="52"/>
  <!-- Max head -->
  <circle cx="66" cy="32" r="8"/>
  <circle cx="64" cy="31" r="1.5" fill="currentColor" stroke="none"/>
  <!-- Max body -->
  <line x1="66" y1="40" x2="66" y2="74"/>
  <line x1="66" y1="74" x2="60" y2="108"/>
  <line x1="66" y1="74" x2="72" y2="108"/>
  <!-- Max arm (around Kash) -->
  <line x1="66" y1="52" x2="46" y2="56"/>
  <!-- Snowflakes (small crosses) -->
  <line x1="18" y1="20" x2="18" y2="28"/>
  <line x1="14" y1="24" x2="22" y2="24"/>
  <line x1="95" y1="15" x2="95" y2="23"/>
  <line x1="91" y1="19" x2="99" y2="19"/>
  <line x1="30" y1="55" x2="30" y2="63"/>
  <line x1="26" y1="59" x2="34" y2="59"/>
  <line x1="100" y1="50" x2="100" y2="58"/>
  <line x1="96" y1="54" x2="104" y2="54"/>
</svg>
