<svg xmlns="http://www.w3.org/2000/svg" viewBox="0 0 100 70" stroke="currentColor" fill="none" stroke-width="2" stroke-linecap="round" stroke-linejoin="round">
  <style>:root { color: #1B2438; }</style>
  <!-- Heart 1 (large, center) -->
  <polyline points="50,48 34,30 34,24 38,20 43,20 50,28" />
  <polyline points="50,48 66,30 66,24 62,20 57,20 50,28" />
  <!-- Heart 2 (small, top-left) -->
  <polyline points="18,25 10,17 10,14 12,12 14,12 18,16" />
  <polyline points="18,25 26,17 26,14 24,12 22,12 18,16" />
  <!-- Heart 3 (small, top-right) -->
  <polyline points="82,22 74,14 74,11 76,9 78,9 82,13" />
  <polyline points="82,22 90,14 90,11 88,9 86,9 82,13" />
  <!-- Heart 4 (tiny, bottom-left) -->
  <polyline points="25,58 20,53 20,51 21,50 23,50 25,52" />
  <polyline points="25,58 30,53 30,51 29,50 27,50 25,52" />
</svg>
