<svg xmlns="http://www.w3.org/2000/svg" viewBox="0 0 80 100" stroke="currentColor" fill="none" stroke-width="2" stroke-linecap="round" stroke-linejoin="round">
  <style>:root { color: #1B2438; }</style>
  <!-- Bottom tier -->
  <path d="M 5 65 C 3 65, 3 90, 5 90 L 75 90 C 77 90, 77 65, 75 65 Z" />
  <!-- Bottom tier frosting drip -->
  <path d="M 5 68 C 12 72, 20 70, 30 72 C 40 74, 50 70, 60 72 C 68 74, 72 70, 75 68" />
  <!-- Middle tier -->
  <path d="M 15 40 C 13 40, 13 65, 15 65 L 65 65 C 67 65, 67 40, 65 40 Z" />
  <!-- Middle tier frosting drip -->
  <path d="M 15 43 C 22 47, 30 45, 40 47 C 50 49, 58 45, 65 43" />
  <!-- Top tier -->
  <path d="M 25 20 C 23 20, 23 40, 25 40 L 55 40 C 57 40, 57 20, 55 20 Z" />
  <!-- Top tier frosting drip -->
  <path d="M 25 23 C 30 26, 38 25, 45 27 C 50 28, 53 25, 55 23" />
  <!-- Topper (heart) -->
  <path d="M 40 18 C 38 12, 32 10, 34 6 C 36 2, 40 4, 40 8 C 40 4, 44 2, 46 6 C 48 10, 42 12, 40 18" />
  <!-- Plate -->
  <path d="M 0 90 C 4 94, 20 96, 40 96 C 60 96, 76 94, 80 90" />
</svg>
