<svg xmlns="http://www.w3.org/2000/svg" viewBox="0 0 120 140" stroke="currentColor" fill="none" stroke-width="2" stroke-linecap="round" stroke-linejoin="round">
  <style>:root { color: #1B2438; }</style>
  <!-- Left bow loop -->
  <path d="M 60 60 C 52 50, 36 38, 24 40 C 14 42, 16 54, 22 60 C 28 66, 46 64, 60 60" />
  <!-- Left bow loop inner shadow -->
  <path d="M 56 58 C 48 52, 38 46, 32 48 C 28 50, 30 56, 34 60 C 38 62, 50 62, 56 58" stroke-width="1.5" />
  <!-- Right bow loop -->
  <path d="M 60 60 C 68 50, 84 38, 96 40 C 106 42, 104 54, 98 60 C 92 66, 74 64, 60 60" />
  <!-- Right bow loop inner shadow -->
  <path d="M 64 58 C 72 52, 82 46, 88 48 C 92 50, 90 56, 86 60 C 82 62, 70 62, 64 58" stroke-width="1.5" />
  <!-- Center knot -->
  <path d="M 54 54 C 54 50, 58 48, 60 48 C 62 48, 66 50, 66 54 C 66 58, 66 66, 66 68 C 66 70, 62 72, 60 72 C 58 72, 54 70, 54 68 C 54 66, 54 58, 54 54" />
  <!-- Left tail -->
  <path d="M 54 68 C 48 80, 42 92, 36 100 C 32 106, 28 108, 24 116" />
  <path d="M 24 116 C 28 112, 30 108, 34 116" />
  <!-- Right tail -->
  <path d="M 66 68 C 72 80, 78 92, 84 100 C 88 106, 92 108, 96 116" />
  <path d="M 96 116 C 92 112, 90 108, 86 116" />
</svg>
