<svg xmlns="http://www.w3.org/2000/svg" viewBox="0 0 50 70" stroke="currentColor" fill="none" stroke-width="2" stroke-linecap="round" stroke-linejoin="round">
  <style>:root { color: #1B2438; }</style>
  <!-- Flower center -->
  <circle cx="25" cy="20" r="4" fill="currentColor" />
  <!-- Petals (organic teardrop shapes) -->
  <path d="M 25 16 C 22 10, 20 4, 25 2 C 30 4, 28 10, 25 16" />
  <path d="M 29 18 C 34 14, 40 12, 40 16 C 40 20, 34 22, 29 18" />
  <path d="M 29 24 C 36 26, 40 30, 38 34 C 34 34, 30 28, 29 24" />
  <path d="M 25 26 C 28 32, 28 38, 24 38 C 20 36, 22 30, 25 26" />
  <path d="M 21 24 C 16 28, 10 30, 10 26 C 12 22, 18 22, 21 24" />
  <path d="M 21 18 C 14 16, 10 12, 12 8 C 16 8, 20 14, 21 18" />
  <!-- Stem (gentle curve) -->
  <path d="M 25 28 C 25 36, 26 48, 25 64" />
  <!-- Left leaf -->
  <path d="M 25 44 C 18 38, 10 36, 12 42 C 14 46, 22 46, 25 44" />
  <!-- Right leaf -->
  <path d="M 25 54 C 32 48, 40 48, 38 52 C 36 56, 28 56, 25 54" />
</svg>
