<svg xmlns="http://www.w3.org/2000/svg" viewBox="0 0 120 140" stroke="currentColor" fill="none" stroke-width="2" stroke-linecap="round" stroke-linejoin="round">
  <style>:root { color: #1B2438; }</style>
  <!-- Outer circle frame -->
  <circle cx="60" cy="70" r="50" />
  <!-- Inner circle frame -->
  <circle cx="60" cy="70" r="44" />
  <!-- Decorative flourishes at cardinal points -->
  <path d="M 60 20 C 56 14, 58 10, 60 8 C 62 10, 64 14, 60 20" />
  <path d="M 60 120 C 56 126, 58 130, 60 132 C 62 130, 64 126, 60 120" />
  <path d="M 10 70 C 4 66, 2 68, 0 70 C 2 72, 4 74, 10 70" />
  <path d="M 110 70 C 116 66, 118 68, 120 70 C 118 72, 116 74, 110 70" />
  <!-- Corner flourishes (organic curves) -->
  <path d="M 26 30 C 22 24, 18 22, 16 26 C 18 30, 24 32, 28 28" stroke-width="1.5" />
  <path d="M 94 30 C 98 24, 102 22, 104 26 C 102 30, 96 32, 92 28" stroke-width="1.5" />
  <path d="M 26 110 C 22 116, 18 118, 16 114 C 18 110, 24 108, 28 112" stroke-width="1.5" />
  <path d="M 94 110 C 98 116, 102 118, 104 114 C 102 110, 96 108, 92 112" stroke-width="1.5" />
  <!-- Letter K (elegant, slightly serif) -->
  <path d="M 38 55 L 38 85" stroke-width="2.5" />
  <path d="M 38 70 C 42 66, 48 58, 52 55" stroke-width="2.5" />
  <path d="M 42 68 C 46 74, 50 80, 52 85" stroke-width="2.5" />
  <!-- Ampersand (decorative) -->
  <path d="M 62 66 C 64 62, 58 58, 56 62 C 54 66, 58 70, 62 68 C 66 66, 66 74, 62 76 C 58 78, 56 74, 58 72" stroke-width="1.8" />
  <!-- Letter M (elegant) -->
  <path d="M 68 85 L 68 55 C 68 55, 72 70, 75 72 C 78 70, 82 55, 82 55 L 82 85" stroke-width="2.5" />
</svg>
