<svg xmlns="http://www.w3.org/2000/svg" viewBox="0 0 120 140" stroke="currentColor" fill="none" stroke-width="2" stroke-linecap="round" stroke-linejoin="round">
  <style>:root { color: #1B2438; }</style>
  <!-- Jar rim -->
  <path d="M 34 36 C 34 32, 38 30, 42 30 L 78 30 C 82 30, 86 32, 86 36 C 86 40, 82 42, 78 42 L 42 42 C 38 42, 34 40, 34 36" />
  <!-- Jar neck -->
  <path d="M 38 42 C 34 46, 30 52, 30 56" />
  <path d="M 82 42 C 86 46, 90 52, 90 56" />
  <!-- Jar body -->
  <path d="M 30 56 C 28 60, 28 80, 28 100 C 28 112, 32 120, 40 122 L 80 122 C 88 120, 92 112, 92 100 C 92 80, 92 60, 90 56" />
  <!-- Flower 1 (left, peony-like) -->
  <path d="M 45 30 C 44 26, 42 18, 40 12" />
  <path d="M 40 12 C 34 8, 30 10, 32 16 C 34 20, 40 18, 40 12" />
  <path d="M 40 12 C 36 4, 40 0, 44 4 C 46 8, 42 14, 40 12" />
  <path d="M 40 12 C 44 6, 50 8, 48 14 C 46 18, 42 16, 40 12" />
  <!-- Flower 2 (center, taller) -->
  <path d="M 60 30 C 60 24, 60 16, 60 8" />
  <path d="M 60 8 C 54 4, 52 8, 56 12 C 58 14, 62 12, 60 8" />
  <path d="M 60 8 C 58 2, 62 0, 64 4 C 66 8, 62 10, 60 8" />
  <path d="M 60 8 C 66 4, 68 8, 64 12 C 62 14, 58 12, 60 8" />
  <!-- Flower 3 (right) -->
  <path d="M 75 30 C 76 26, 78 18, 80 14" />
  <path d="M 80 14 C 86 10, 90 14, 86 18 C 84 20, 80 18, 80 14" />
  <path d="M 80 14 C 84 8, 80 4, 76 8 C 74 12, 78 16, 80 14" />
  <path d="M 80 14 C 74 10, 72 14, 76 18 C 78 20, 82 16, 80 14" />
  <!-- Leaves -->
  <path d="M 42 22 C 34 18, 28 22, 32 26 C 36 30, 44 26, 42 22" />
  <path d="M 78 24 C 86 20, 92 24, 88 28 C 84 32, 76 28, 78 24" />
  <!-- Small leaf stems -->
  <path d="M 52 28 C 50 24, 48 22, 46 20" />
  <path d="M 68 28 C 70 24, 72 22, 74 20" />
</svg>
