<svg xmlns="http://www.w3.org/2000/svg" viewBox="0 0 60 90" stroke="currentColor" fill="none" stroke-width="2" stroke-linecap="round" stroke-linejoin="round">
  <style>:root { color: #1B2438; }</style>
  <!-- Martini glass bowl -->
  <path d="M 6 10 C 8 8, 12 6, 16 6 L 44 6 C 48 6, 52 8, 54 10 C 50 20, 42 32, 30 44" />
  <path d="M 6 10 C 10 20, 18 32, 30 44" />
  <!-- Liquid line -->
  <path d="M 10 14 C 18 16, 30 18, 50 14" />
  <!-- Stem -->
  <path d="M 30 44 C 30 52, 30 60, 30 70" />
  <!-- Base -->
  <path d="M 14 74 C 18 70, 24 68, 30 68 C 36 68, 42 70, 46 74 C 48 76, 44 78, 30 78 C 16 78, 12 76, 14 74" />
  <!-- Olive on pick -->
  <path d="M 14 14 C 14 12, 18 10, 24 14 C 28 18, 30 28, 30 30" />
  <ellipse cx="18" cy="18" rx="4" ry="3.5" />
  <circle cx="18" cy="18" r="1.5" />
</svg>
