<svg xmlns="http://www.w3.org/2000/svg" viewBox="0 0 120 140" stroke="currentColor" fill="none" stroke-width="2" stroke-linecap="round" stroke-linejoin="round">
  <style>:root { color: #1B2438; }</style>
  <!-- Dove body -->
  <path d="M 30 58 C 22 52, 20 42, 30 38 C 40 34, 60 36, 72 40 C 80 44, 86 50, 86 58 C 86 66, 78 72, 68 74 C 58 76, 40 72, 30 66 C 26 64, 26 62, 30 58" />
  <!-- Dove head -->
  <path d="M 80 42 C 84 36, 90 32, 96 34 C 102 36, 102 44, 96 48 C 92 50, 86 50, 82 48" />
  <!-- Beak -->
  <path d="M 96 38 C 100 36, 106 36, 108 38 C 106 40, 102 40, 96 42" />
  <!-- Eye -->
  <circle cx="92" cy="40" r="1.5" fill="currentColor" />
  <!-- Wing (raised, spread) -->
  <path d="M 40 48 C 32 34, 20 20, 10 16 C 16 18, 24 24, 30 30" />
  <path d="M 44 44 C 38 30, 28 16, 18 10 C 24 14, 34 22, 40 30" />
  <path d="M 48 42 C 44 28, 38 14, 30 8 C 36 12, 44 22, 48 32" />
  <!-- Tail feathers -->
  <path d="M 30 64 C 20 68, 10 66, 6 60 C 10 62, 16 62, 24 58" />
  <path d="M 28 68 C 18 74, 8 74, 4 70 C 8 72, 14 70, 22 64" />
  <!-- Olive branch in beak -->
  <path d="M 106 38 C 110 42, 112 50, 108 60 C 106 68, 102 76, 98 84" />
  <!-- Branch leaves -->
  <path d="M 110 48 C 114 44, 118 46, 116 50 C 114 54, 110 52, 110 48" />
  <path d="M 108 58 C 112 54, 116 56, 114 60 C 112 64, 108 62, 108 58" />
  <path d="M 104 68 C 108 64, 112 66, 110 70 C 108 74, 104 72, 104 68" />
  <path d="M 100 78 C 104 74, 108 76, 106 80 C 104 84, 100 82, 100 78" />
</svg>
