<svg xmlns="http://www.w3.org/2000/svg" viewBox="0 0 200 40" fill="none" stroke="currentColor" stroke-width="1.5" stroke-linecap="round" stroke-linejoin="round">
  <style>:root { color: #1B2438; }</style>

  <!-- Central stem -->
  <path d="M 100 8 L 100 32" />

  <!-- Left branch -->
  <path d="M 100 20 Q 80 18 60 20 Q 40 22 20 20" />

  <!-- Left leaves along branch -->
  <path d="M 80 18 Q 75 10 70 16 Q 76 20 80 18" />
  <path d="M 60 20 Q 55 12 50 18 Q 56 22 60 20" />
  <path d="M 40 21 Q 35 14 30 19 Q 36 23 40 21" />

  <!-- Right branch -->
  <path d="M 100 20 Q 120 18 140 20 Q 160 22 180 20" />

  <!-- Right leaves along branch -->
  <path d="M 120 18 Q 125 10 130 16 Q 124 20 120 18" />
  <path d="M 140 20 Q 145 12 150 18 Q 144 22 140 20" />
  <path d="M 160 21 Q 165 14 170 19 Q 164 23 160 21" />

  <!-- Top leaf pair on central stem -->
  <path d="M 100 12 Q 93 6 96 12 Q 98 14 100 12" />
  <path d="M 100 12 Q 107 6 104 12 Q 102 14 100 12" />

  <!-- Bottom leaf pair on central stem -->
  <path d="M 100 28 Q 93 34 96 28 Q 98 26 100 28" />
  <path d="M 100 28 Q 107 34 104 28 Q 102 26 100 28" />

  <!-- Tiny berry accents -->
  <circle cx="24" cy="20" r="1.5" />
  <circle cx="176" cy="20" r="1.5" />
</svg>
