<svg xmlns="http://www.w3.org/2000/svg" viewBox="0 0 200 30" fill="none" stroke="currentColor" stroke-width="1.5" stroke-linecap="round" stroke-linejoin="round">
  <style>:root { color: #1B2438; }</style>

  <!-- Left extending line -->
  <path d="M 10 15 Q 30 14 55 15 Q 70 15 80 14" />

  <!-- Central scroll/swirl -->
  <path d="M 80 14 Q 85 8 92 8 Q 100 8 100 15 Q 100 22 92 22 Q 86 22 85 18" />
  <path d="M 120 16 Q 115 22 108 22 Q 100 22 100 15 Q 100 8 108 8 Q 114 8 115 12" />

  <!-- Small diamond at center -->
  <path d="M 97 15 L 100 12 L 103 15 L 100 18 Z" />

  <!-- Right extending line -->
  <path d="M 120 16 Q 130 15 145 15 Q 170 16 190 15" />

  <!-- Tiny dot accents -->
  <circle cx="25" cy="15" r="1.2" />
  <circle cx="175" cy="15" r="1.2" />
</svg>
