<svg xmlns="http://www.w3.org/2000/svg" viewBox="0 0 120 80" fill="none" stroke="currentColor" stroke-width="2" stroke-linecap="round" stroke-linejoin="round">
  <style>:root { color: #1B2438; }</style>

  <!-- Oval platter -->
  <ellipse cx="60" cy="50" rx="52" ry="22" />

  <!-- Platter rim detail -->
  <path d="M 14 50 Q 60 42 106 50" />

  <!-- Cheese wedge (left) -->
  <path d="M 22 42 L 30 30 L 40 42" />
  <path d="M 30 30 L 38 35" />
  <!-- Cheese holes -->
  <circle cx="30" cy="38" r="1.5" />
  <circle cx="34" cy="35" r="1" />

  <!-- Crackers (center-left) -->
  <rect x="42" y="36" width="8" height="10" rx="1" />
  <rect x="46" y="34" width="8" height="10" rx="1" />

  <!-- Grapes cluster (center) -->
  <circle cx="62" cy="36" r="3.5" />
  <circle cx="67" cy="34" r="3.5" />
  <circle cx="64" cy="30" r="3.5" />
  <circle cx="69" cy="30" r="3" />
  <!-- Grape stem -->
  <line x1="65" y1="26" x2="65" y2="22" />
  <path d="M 65 22 Q 68 20 70 22" />

  <!-- Small round items - olives/cherry tomatoes (right side) -->
  <circle cx="80" cy="38" r="3" />
  <circle cx="86" cy="36" r="3" />
  <circle cx="83" cy="42" r="3" />
  <!-- Olive detail -->
  <circle cx="80" cy="38" r="1" />

  <!-- Herb sprig garnish -->
  <path d="M 94 32 L 98 28" />
  <path d="M 96 30 Q 92 26 94 24 Q 98 26 96 30" />
  <path d="M 97 29 Q 100 25 102 27 Q 100 30 97 29" />
</svg>
