<svg xmlns="http://www.w3.org/2000/svg" viewBox="0 0 100 120" fill="none" stroke="currentColor" stroke-width="2" stroke-linecap="round" stroke-linejoin="round">
  <style>:root { color: #1B2438; }</style>

  <!-- Bottom row: 3 coupe glasses -->
  <!-- Glass 1 (left) -->
  <path d="M 10 95 Q 10 82 20 78 Q 25 76 30 78 Q 40 82 40 95" />
  <path d="M 10 95 Q 25 98 40 95" />
  <line x1="25" y1="95" x2="25" y2="108" />
  <path d="M 17 108 Q 25 106 33 108" />

  <!-- Glass 2 (center) -->
  <path d="M 30 95 Q 30 82 40 78 Q 45 76 50 78 Q 60 82 60 95" />
  <path d="M 30 95 Q 45 98 60 95" />

  <!-- Glass 3 (right) -->
  <path d="M 60 95 Q 60 82 70 78 Q 75 76 80 78 Q 90 82 90 95" />
  <path d="M 60 95 Q 75 98 90 95" />
  <line x1="75" y1="95" x2="75" y2="108" />
  <path d="M 67 108 Q 75 106 83 108" />

  <!-- Center bottom glass stem (shared visual) -->
  <line x1="50" y1="95" x2="50" y2="108" />
  <path d="M 42 108 Q 50 106 58 108" />

  <!-- Middle row: 2 coupe glasses -->
  <!-- Glass 4 (left) -->
  <path d="M 20 68 Q 20 55 30 51 Q 35 49 40 51 Q 50 55 50 68" />
  <path d="M 20 68 Q 35 71 50 68" />
  <line x1="35" y1="68" x2="35" y2="76" />

  <!-- Glass 5 (right) -->
  <path d="M 50 68 Q 50 55 60 51 Q 65 49 70 51 Q 80 55 80 68" />
  <path d="M 50 68 Q 65 71 80 68" />
  <line x1="65" y1="68" x2="65" y2="76" />

  <!-- Top row: 1 coupe glass -->
  <path d="M 35 42 Q 35 29 45 25 Q 50 23 55 25 Q 65 29 65 42" />
  <path d="M 35 42 Q 50 45 65 42" />
  <line x1="50" y1="42" x2="50" y2="49" />

  <!-- Bubbles rising from top glass -->
  <circle cx="48" cy="20" r="1.5" />
  <circle cx="53" cy="15" r="1" />
  <circle cx="50" cy="10" r="1.5" />
  <circle cx="46" cy="6" r="1" />
  <circle cx="55" cy="4" r="1.2" />

  <!-- Small sparkle -->
  <line x1="42" y1="8" x2="42" y2="12" />
  <line x1="40" y1="10" x2="44" y2="10" />
</svg>
