<svg xmlns="http://www.w3.org/2000/svg" viewBox="0 0 100 60" fill="none" stroke="currentColor" stroke-width="2" stroke-linecap="round" stroke-linejoin="round">
  <style>:root { color: #1B2438; }</style>

  <!-- Main branch stem -->
  <path d="M 10 45 Q 25 40 40 35 Q 55 28 70 22 Q 82 16 92 12" />

  <!-- Leaves sprouting upward from stem -->
  <path d="M 25 40 Q 18 30 22 24 Q 28 30 25 40" />
  <path d="M 40 35 Q 34 24 38 18 Q 44 25 40 35" />
  <path d="M 55 28 Q 50 17 54 12 Q 60 18 55 28" />
  <path d="M 70 22 Q 66 12 70 7 Q 76 13 70 22" />
  <path d="M 85 15 Q 82 7 86 3 Q 90 8 85 15" />

  <!-- Leaves sprouting downward from stem -->
  <path d="M 30 38 Q 34 48 30 52 Q 24 46 30 38" />
  <path d="M 48 31 Q 52 42 48 46 Q 42 40 48 31" />
  <path d="M 65 24 Q 70 34 66 38 Q 60 32 65 24" />
  <path d="M 80 18 Q 85 27 82 30 Q 76 24 80 18" />

  <!-- Tiny berry accents -->
  <circle cx="15" cy="44" r="2" />
  <circle cx="90" cy="10" r="2" />
  <circle cx="92" cy="14" r="1.5" />
</svg>
