<svg xmlns="http://www.w3.org/2000/svg" viewBox="0 0 100 40" fill="none" stroke="currentColor" stroke-width="1.5" stroke-linecap="round" stroke-linejoin="round">
  <style>:root { color: #1B2438; }</style>
  <!-- Star 1 (small) -->
  <path d="M 15 15 L 17 10 L 19 15 L 24 13 L 20 16 L 23 20 L 18 18 L 15 22 L 16 17 L 11 16 Z" />

  <!-- Star 2 (medium) -->
  <path d="M 50 12 L 53 5 L 56 12 L 63 9 L 58 14 L 62 20 L 55 17 L 50 23 L 52 16 L 45 14 Z" />

  <!-- Star 3 (small) -->
  <path d="M 82 18 L 84 13 L 86 18 L 91 16 L 87 19 L 90 23 L 85 21 L 82 25 L 83 20 L 78 19 Z" />

  <!-- Star 4 (tiny sparkle) -->
  <line x1="35" y1="28" x2="35" y2="34" />
  <line x1="32" y1="31" x2="38" y2="31" />
</svg>
