<svg xmlns="http://www.w3.org/2000/svg" viewBox="0 0 400 60" stroke="currentColor" fill="none" stroke-width="2" stroke-linecap="round" stroke-linejoin="round">
  <style>:root { color: #1B2438; }</style>
  <!-- Thick horizontal brush stroke with organic tapered edges -->
  <path fill="currentColor" stroke="none" d="
    M 12,28
    C 25,22 45,18 80,20
    C 120,22 140,17 180,16
    C 220,15 260,18 300,17
    C 340,16 360,19 380,22
    C 390,24 395,27 388,30
    C 392,33 394,36 386,38
    C 370,42 350,44 310,43
    C 270,42 230,46 190,45
    C 150,44 110,42 70,43
    C 40,44 22,40 14,36
    C 8,33 6,30 12,28
    Z"/>
  <!-- Rough edge texture - top -->
  <path fill="currentColor" stroke="none" d="M 60,19 C 65,16 72,15 78,18 C 74,14 66,15 60,19 Z"/>
  <path fill="currentColor" stroke="none" d="M 150,15 C 158,12 165,13 170,16 C 166,12 156,11 150,15 Z"/>
  <path fill="currentColor" stroke="none" d="M 250,16 C 258,13 266,14 270,17 C 265,13 255,12 250,16 Z"/>
  <path fill="currentColor" stroke="none" d="M 340,17 C 347,14 354,16 358,19 C 353,15 344,14 340,17 Z"/>
  <!-- Rough edge texture - bottom -->
  <path fill="currentColor" stroke="none" d="M 90,44 C 96,47 104,48 110,45 C 106,49 94,49 90,44 Z"/>
  <path fill="currentColor" stroke="none" d="M 200,45 C 208,48 216,49 222,46 C 218,50 206,50 200,45 Z"/>
  <path fill="currentColor" stroke="none" d="M 310,43 C 318,46 326,47 332,44 C 328,48 316,48 310,43 Z"/>
  <!-- Dry brush streaks (thin lines within the stroke) -->
  <path stroke="currentColor" fill="none" stroke-width="0.5" opacity="0.3" d="M 30,25 C 100,23 200,22 370,26"/>
  <path stroke="currentColor" fill="none" stroke-width="0.5" opacity="0.3" d="M 25,33 C 100,35 200,36 375,34"/>
</svg>
