<svg xmlns="http://www.w3.org/2000/svg" viewBox="0 0 110 120" fill="none" stroke="currentColor" stroke-width="2" stroke-linecap="round" stroke-linejoin="round">
  <style>:root { color: #1B2438; }</style>
  <!-- Simplified English bulldog sitting -- for small uses (program, name tag) -->

  <!-- Head -->
  <path d="M 25 38 C 23 24, 33 14, 45 12 C 50 11, 60 11, 65 12 C 77 14, 87 24, 85 38 C 85 46, 80 52, 72 55 C 64 58, 46 58, 38 55 C 30 52, 25 46, 25 38" />

  <!-- Wrinkle lines -->
  <path d="M 38 22 C 44 19, 50 19, 56 22" />
  <path d="M 60 22 C 66 19, 72 20, 76 23" />

  <!-- Rose ears -->
  <path d="M 28 22 C 24 16, 20 15, 18 20 C 17 23, 20 26, 25 25" />
  <path d="M 82 22 C 86 16, 90 15, 92 20 C 93 23, 90 26, 85 25" />

  <!-- Eyes -->
  <circle cx="40" cy="34" r="3.5" fill="currentColor" />
  <circle cx="70" cy="34" r="3.5" fill="currentColor" />
  <circle cx="39" cy="33" r="1.2" fill="white" stroke="none" />
  <circle cx="69" cy="33" r="1.2" fill="white" stroke="none" />

  <!-- Nose -->
  <path d="M 48 42 C 48 40, 51 38, 55 38 C 59 38, 62 40, 62 42 C 62 45, 59 46, 55 46 C 51 46, 48 45, 48 42" />
  <ellipse cx="52" cy="42" rx="2" ry="1.5" />
  <ellipse cx="58" cy="42" rx="2" ry="1.5" />

  <!-- Underbite -->
  <path d="M 44 50 C 48 48, 52 47, 55 48 C 58 47, 62 48, 66 50" />
  <path d="M 50 50 L 50 48" />
  <path d="M 60 50 L 60 48" />

  <!-- Jowls -->
  <path d="M 32 44 C 30 48, 30 52, 34 55" />
  <path d="M 78 44 C 80 48, 80 52, 76 55" />

  <!-- Body -->
  <path d="M 32 58 C 27 66, 24 78, 22 88 C 21 94, 24 98, 28 102" />
  <path d="M 78 58 C 83 66, 86 78, 88 88 C 89 94, 86 98, 82 102" />

  <!-- Front legs -->
  <path d="M 34 82 C 33 88, 32 96, 31 106" />
  <path d="M 42 84 C 41 90, 40 98, 39 106" />
  <path d="M 68 84 C 69 90, 70 98, 71 106" />
  <path d="M 76 82 C 77 88, 78 96, 79 106" />

  <!-- Paws -->
  <path d="M 27 106 C 29 110, 33 111, 36 110 C 39 111, 43 110, 44 106" />
  <path d="M 66 106 C 68 110, 72 111, 75 110 C 78 111, 82 110, 83 106" />

  <!-- Belly -->
  <path d="M 28 102 C 42 108, 68 108, 82 102" />
</svg>
