<svg xmlns="http://www.w3.org/2000/svg" viewBox="0 0 100 120" fill="none" stroke="currentColor" stroke-width="2.5" stroke-linecap="round" stroke-linejoin="round">
  <style>:root { color: #1B2438; }</style>
  <!-- Head -->
  <rect x="15" y="12" width="70" height="45" rx="18" ry="14" />
  <!-- Rose ears -->
  <polyline points="22,18 14,6 30,14" />
  <polyline points="78,18 86,6 70,14" />
  <!-- Sunglasses (rects instead of eye circles) -->
  <rect x="25" y="28" width="18" height="12" rx="3" ry="3" />
  <rect x="57" y="28" width="18" height="12" rx="3" ry="3" />
  <!-- Bridge -->
  <line x1="43" y1="34" x2="57" y2="34" />
  <!-- Temple arms -->
  <line x1="25" y1="32" x2="18" y2="30" />
  <line x1="75" y1="32" x2="82" y2="30" />
  <!-- Wide flat nose -->
  <rect x="38" y="42" width="24" height="10" rx="5" ry="4" />
  <!-- Underbite jaw -->
  <polyline points="32,56 40,60 50,62 60,60 68,56" />
  <!-- Jowl lines -->
  <line x1="18" y1="42" x2="16" y2="55" />
  <line x1="82" y1="42" x2="84" y2="55" />
  <!-- Stocky body -->
  <rect x="22" y="60" width="56" height="38" rx="10" ry="8" />
  <!-- Front legs -->
  <rect x="26" y="88" width="14" height="24" rx="5" />
  <rect x="60" y="88" width="14" height="24" rx="5" />
</svg>
