<svg xmlns="http://www.w3.org/2000/svg" viewBox="0 0 100 120" fill="none" stroke="currentColor" stroke-width="2.5" stroke-linecap="round" stroke-linejoin="round">
  <style>:root { color: #1B2438; }</style>
  <!-- Head from behind -->
  <rect x="15" y="12" width="70" height="45" rx="18" ry="14" />
  <!-- Rose ears (from behind) -->
  <polyline points="22,18 14,6 30,14" />
  <polyline points="78,18 86,6 70,14" />
  <!-- Back of head wrinkle lines -->
  <line x1="38" y1="30" x2="62" y2="30" />
  <line x1="40" y1="36" x2="60" y2="36" />
  <!-- Stocky body from behind -->
  <rect x="22" y="60" width="56" height="38" rx="10" ry="8" />
  <!-- Stubby tail -->
  <polyline points="46,62 50,54 54,62" />
  <!-- Back legs -->
  <rect x="26" y="88" width="14" height="24" rx="5" />
  <rect x="60" y="88" width="14" height="24" rx="5" />
  <!-- Paw lines -->
  <line x1="31" y1="108" x2="31" y2="104" />
  <line x1="36" y1="108" x2="36" y2="104" />
  <line x1="65" y1="108" x2="65" y2="104" />
  <line x1="70" y1="108" x2="70" y2="104" />
</svg>
