<svg xmlns="http://www.w3.org/2000/svg" viewBox="0 0 120 130" fill="none" stroke="currentColor" stroke-width="2.5" stroke-linecap="round" stroke-linejoin="round">
  <style>:root { color: #1B2438; }</style>
  <!-- Wreath circle -->
  <circle cx="60" cy="55" r="48" stroke-width="1.5" />
  <!-- Wreath leaf details (organic curves around the circle) -->
  <path d="M 16 35 C 12 32, 10 28, 14 26" stroke-width="1.5" />
  <path d="M 12 50 C 8 48, 6 44, 10 42" stroke-width="1.5" />
  <path d="M 14 70 C 10 72, 8 76, 12 78" stroke-width="1.5" />
  <path d="M 24 84 C 20 88, 22 92, 26 90" stroke-width="1.5" />
  <path d="M 96 84 C 100 88, 98 92, 94 90" stroke-width="1.5" />
  <path d="M 104 35 C 108 32, 110 28, 106 26" stroke-width="1.5" />
  <path d="M 108 50 C 112 48, 114 44, 110 42" stroke-width="1.5" />
  <path d="M 106 70 C 110 72, 112 76, 108 78" stroke-width="1.5" />
  <path d="M 44 10 C 42 6, 46 4, 48 8" stroke-width="1.5" />
  <path d="M 72 10 C 74 6, 70 4, 68 8" stroke-width="1.5" />
  <!-- Wreath bow at bottom -->
  <path d="M 48 100 L 54 96 L 54 104 Z" stroke-width="1.5" />
  <path d="M 72 100 L 66 96 L 66 104 Z" stroke-width="1.5" />
  <circle cx="60" cy="100" r="3" stroke-width="1.5" />
  <!-- Ribbon tails -->
  <path d="M 52 104 C 48 110, 44 116, 42 122" stroke-width="1.5" />
  <path d="M 68 104 C 72 110, 76 116, 78 122" stroke-width="1.5" />
  <!-- Bulldog head inside wreath -->
  <path d="M 35 50 C 33 38, 42 28, 52 26 C 56 25, 64 25, 68 26 C 78 28, 87 38, 85 50 C 85 58, 80 63, 74 66 C 66 69, 54 69, 46 66 C 40 63, 35 58, 35 50" />
  <!-- Forehead wrinkles -->
  <path d="M 46 36 C 52 33, 56 33, 58 36" />
  <path d="M 62 36 C 66 33, 70 33, 74 36" />
  <!-- Rose ears -->
  <path d="M 39 36 C 36 28, 30 26, 28 32 C 27 36, 30 40, 35 39" />
  <path d="M 81 36 C 84 28, 90 26, 92 32 C 93 36, 90 40, 85 39" />
  <!-- Eyes -->
  <circle cx="48" cy="46" r="3" fill="currentColor" />
  <circle cx="72" cy="46" r="3" fill="currentColor" />
  <circle cx="47" cy="45" r="1" fill="white" stroke="none" />
  <circle cx="71" cy="45" r="1" fill="white" stroke="none" />
  <!-- Nose -->
  <path d="M 52 54 C 52 50, 56 48, 60 48 C 64 48, 68 50, 68 54 C 68 58, 64 60, 60 60 C 56 60, 52 58, 52 54" />
  <ellipse cx="57" cy="54" rx="2" ry="1.5" />
  <ellipse cx="63" cy="54" rx="2" ry="1.5" />
  <!-- Underbite -->
  <path d="M 50 62 C 54 60, 58 59, 60 60 C 62 59, 66 60, 70 62" />
  <!-- Jowls -->
  <path d="M 42 56 C 38 60, 38 66, 44 68" />
  <path d="M 78 56 C 82 60, 82 66, 76 68" />
  <!-- Paws draped over wreath bottom -->
  <path d="M 32 96 C 32 90, 36 88, 42 90 C 44 91, 44 96, 42 100" />
  <path d="M 78 96 C 78 90, 82 88, 88 90 C 90 91, 90 96, 88 100" />
  <path d="M 36 98 L 36 95" />
  <path d="M 40 99 L 40 96" />
  <path d="M 82 98 L 82 95" />
  <path d="M 86 99 L 86 96" />
</svg>
