<svg xmlns="http://www.w3.org/2000/svg" viewBox="0 0 170 110" fill="none" stroke="currentColor" stroke-width="2" stroke-linecap="round" stroke-linejoin="round">
  <style>:root { color: #1B2438; }</style>
  <!-- English bulldog walking profile -- cheerful, mid-stride -->

  <!-- Head (in profile, flat-faced) -->
  <path d="M 120 20 C 132 16, 145 20, 150 30 C 154 38, 152 48, 145 52 C 140 55, 130 56, 125 54 C 118 52, 112 46, 112 38 C 112 30, 115 22, 120 20" />

  <!-- Forehead wrinkles -->
  <path d="M 122 24 C 128 22, 134 22, 138 24" />
  <path d="M 124 28 C 130 26, 136 27, 140 29" />

  <!-- Rose ear (profile -- one visible) -->
  <path d="M 118 20 C 116 14, 112 12, 110 16 C 110 20, 114 22, 118 21" />

  <!-- Eye -->
  <circle cx="132" cy="34" r="3.5" fill="currentColor" />
  <circle cx="131" cy="33" r="1.2" fill="white" stroke="none" />

  <!-- Flat nose (profile) -->
  <path d="M 148 36 C 152 36, 155 40, 154 44 C 153 47, 150 48, 148 46" />
  <ellipse cx="152" cy="42" rx="2" ry="1.5" />

  <!-- Underbite / lower jaw jutting forward -->
  <path d="M 145 52 C 148 50, 154 50, 156 52 C 157 54, 155 56, 150 56" />
  <!-- Tooth -->
  <path d="M 152 52 L 152 50" />

  <!-- Jowl -->
  <path d="M 140 48 C 138 52, 138 56, 142 58" />

  <!-- Tongue (happy, slightly out) -->
  <path d="M 148 54 C 150 56, 152 58, 150 60 C 148 61, 146 58, 148 54" />

  <!-- Body (barrel chest, low-slung) -->
  <!-- Back line -->
  <path d="M 115 30 C 100 28, 80 30, 60 34 C 45 37, 30 40, 20 42" />
  <!-- Chest/belly line -->
  <path d="M 125 55 C 110 60, 90 65, 70 68 C 55 70, 35 68, 22 62" />

  <!-- Front legs (walking -- one forward, one back) -->
  <!-- Front leg forward -->
  <path d="M 105 58 C 104 68, 108 80, 112 92" />
  <path d="M 108 92 C 110 96, 114 97, 118 94 C 120 92, 118 90, 112 92" />
  <!-- Front leg back -->
  <path d="M 90 62 C 88 72, 82 80, 78 92" />
  <path d="M 74 92 C 76 96, 80 97, 84 94 C 86 92, 84 90, 78 92" />

  <!-- Back legs (walking -- one forward, one back) -->
  <!-- Back leg forward -->
  <path d="M 42 58 C 44 68, 50 78, 52 92" />
  <path d="M 48 92 C 50 96, 54 97, 58 94 C 60 92, 58 90, 52 92" />
  <!-- Back leg back -->
  <path d="M 26 54 C 22 64, 16 76, 14 92" />
  <path d="M 10 92 C 12 96, 16 97, 20 94 C 22 92, 20 90, 14 92" />

  <!-- Tail (short, stubby, up) -->
  <path d="M 20 40 C 14 36, 10 30, 12 26 C 13 24, 16 24, 16 26" />
</svg>
