<svg xmlns="http://www.w3.org/2000/svg" viewBox="0 0 150 100" fill="none" stroke="currentColor" stroke-width="2.5" stroke-linecap="round" stroke-linejoin="round">
  <style>:root { color: #1B2438; }</style>
  <!-- Head (profile, flat-faced) -->
  <path d="M 105 18 C 115 14, 128 18, 132 28 C 136 36, 134 44, 128 48 C 124 50, 114 52, 110 50 C 104 48, 98 42, 98 34 C 98 26, 100 20, 105 18" />
  <!-- Forehead wrinkles -->
  <path d="M 108 22 C 114 20, 120 20, 124 22" />
  <path d="M 110 26 C 116 24, 122 25, 126 27" />
  <!-- Rose ear -->
  <path d="M 104 18 C 102 12, 98 10, 96 14 C 96 18, 100 20, 104 19" />
  <!-- Eye -->
  <circle cx="116" cy="32" r="3" fill="currentColor" />
  <circle cx="115" cy="31" r="1" fill="white" stroke="none" />
  <!-- Flat nose -->
  <path d="M 130 34 C 134 34, 137 38, 136 42 C 135 44, 132 45, 130 43" />
  <ellipse cx="134" cy="40" rx="1.8" ry="1.4" />
  <!-- Underbite -->
  <path d="M 128 48 C 130 46, 136 46, 138 48 C 139 50, 137 52, 132 52" />
  <path d="M 134 48 L 134 46" />
  <!-- Jowl -->
  <path d="M 122 44 C 120 48, 120 52, 124 54" />
  <!-- Tongue hanging out -->
  <path d="M 130 50 C 132 52, 134 54, 132 56 C 130 57, 128 54, 130 50" />
  <!-- Body (walking profile) -->
  <path d="M 100 28 C 86 26, 66 28, 48 32 C 34 35, 22 38, 14 40" />
  <path d="M 110 50 C 96 56, 76 60, 56 62 C 42 64, 28 62, 16 56" />
  <!-- Front legs (walking stride) -->
  <path d="M 90 54 C 88 62, 84 72, 82 84" />
  <path d="M 82 84 C 84 88, 88 89, 90 86 C 92 84, 90 82, 82 84" />
  <path d="M 74 58 C 76 66, 80 74, 84 84" />
  <path d="M 80 84 C 82 88, 86 89, 88 86 C 90 84, 88 82, 84 84" />
  <!-- Back legs (walking stride) -->
  <path d="M 36 54 C 34 62, 30 72, 28 84" />
  <path d="M 24 84 C 26 88, 30 89, 34 86 C 36 84, 34 82, 28 84" />
  <path d="M 20 50 C 18 60, 14 70, 12 84" />
  <path d="M 8 84 C 10 88, 14 89, 18 86 C 20 84, 18 82, 12 84" />
  <!-- Curly tail -->
  <path d="M 14 38 C 8 34, 6 28, 8 24 C 9 22, 12 22, 12 24" />
</svg>
