<svg xmlns="http://www.w3.org/2000/svg" viewBox="0 0 100 120" fill="none" stroke="currentColor" stroke-width="2.5" stroke-linecap="round" stroke-linejoin="round">
  <style>:root { color: #1B2438; }</style>
  <!-- Head: wide curved bulldog -->
  <path d="M 20 38 C 18 24, 28 12, 40 10 C 45 9, 55 9, 60 10 C 72 12, 82 24, 80 38 C 80 46, 75 52, 68 55 C 60 58, 40 58, 32 55 C 25 52, 20 46, 20 38" />
  <!-- Forehead wrinkles -->
  <path d="M 34 20 C 40 17, 46 17, 50 20" />
  <path d="M 50 20 C 56 17, 62 17, 66 20" />
  <!-- Rose ears -->
  <path d="M 24 22 C 20 14, 14 12, 12 18 C 11 22, 14 26, 20 26" />
  <path d="M 76 22 C 80 14, 86 12, 88 18 C 89 22, 86 26, 80 26" />
  <!-- Sunglasses lenses -->
  <path d="M 26 28 C 26 24, 30 22, 36 22 C 42 22, 46 24, 46 28 C 46 34, 42 38, 36 38 C 30 38, 26 34, 26 28" />
  <path d="M 54 28 C 54 24, 58 22, 64 22 C 70 22, 74 24, 74 28 C 74 34, 70 38, 64 38 C 58 38, 54 34, 54 28" />
  <!-- Bridge -->
  <path d="M 46 28 C 48 26, 52 26, 54 28" />
  <!-- Temple arms -->
  <path d="M 26 28 C 22 27, 18 26, 14 26" />
  <path d="M 74 28 C 78 27, 82 26, 86 26" />
  <!-- Wide flat nose -->
  <path d="M 40 42 C 40 38, 44 36, 50 36 C 56 36, 60 38, 60 42 C 60 46, 56 48, 50 48 C 44 48, 40 46, 40 42" />
  <ellipse cx="46" cy="42" rx="2.5" ry="2" />
  <ellipse cx="54" cy="42" rx="2.5" ry="2" />
  <!-- Underbite jaw -->
  <path d="M 36 50 C 40 48, 46 47, 50 48 C 54 47, 60 48, 64 50" />
  <path d="M 44 50 L 44 47.5" />
  <path d="M 56 50 L 56 47.5" />
  <!-- Jowls -->
  <path d="M 28 44 C 24 48, 24 54, 30 56" />
  <path d="M 72 44 C 76 48, 76 54, 70 56" />
  <!-- Neck -->
  <path d="M 28 56 C 34 60, 42 62, 50 62" />
  <path d="M 72 56 C 66 60, 58 62, 50 62" />
  <!-- Body -->
  <path d="M 28 64 C 22 70, 20 80, 20 88 C 20 94, 22 98, 26 100" />
  <path d="M 72 64 C 78 70, 80 80, 80 88 C 80 94, 78 98, 74 100" />
  <!-- Legs -->
  <path d="M 30 86 C 29 92, 28 100, 28 108" />
  <path d="M 40 88 C 39 94, 38 102, 37 108" />
  <path d="M 60 88 C 61 94, 62 102, 63 108" />
  <path d="M 70 86 C 71 92, 72 100, 72 108" />
  <!-- Paws -->
  <path d="M 24 108 C 26 112, 30 113, 33 112 C 36 113, 40 112, 42 108" />
  <path d="M 58 108 C 60 112, 64 113, 67 112 C 70 113, 74 112, 76 108" />
  <!-- Belly -->
  <path d="M 26 100 C 40 108, 60 108, 74 100" />
</svg>
