<svg xmlns="http://www.w3.org/2000/svg" viewBox="0 0 120 55" fill="none" stroke="currentColor" stroke-width="2.5" stroke-linecap="round" stroke-linejoin="round">
  <style>:root { color: #1B2438; }</style>
  <!-- Edge line (peeking over something) -->
  <line x1="0" y1="50" x2="120" y2="50" />
  <!-- Head: wide curved bulldog peeking over edge -->
  <path d="M 28 38 C 26 24, 36 14, 48 12 C 53 11, 63 11, 68 12 C 80 14, 90 24, 88 38 C 88 44, 84 48, 78 50" />
  <path d="M 28 38 C 28 44, 32 48, 38 50" />
  <!-- Forehead wrinkles -->
  <path d="M 42 22 C 48 19, 54 19, 58 22" />
  <path d="M 58 22 C 64 19, 70 19, 74 22" />
  <!-- Rose ears -->
  <path d="M 32 20 C 28 12, 22 10, 20 16 C 19 20, 22 24, 28 24" />
  <path d="M 84 20 C 88 12, 94 10, 96 16 C 97 20, 94 24, 88 24" />
  <!-- Eyes (big, looking up) -->
  <circle cx="44" cy="32" r="4" fill="currentColor" />
  <circle cx="72" cy="32" r="4" fill="currentColor" />
  <circle cx="43" cy="30" r="1.5" fill="white" stroke="none" />
  <circle cx="71" cy="30" r="1.5" fill="white" stroke="none" />
  <!-- Wide flat nose -->
  <path d="M 48 40 C 48 37, 52 35, 58 35 C 64 35, 68 37, 68 40 C 68 43, 64 45, 58 45 C 52 45, 48 43, 48 40" />
  <ellipse cx="54" cy="40" rx="2" ry="1.5" />
  <ellipse cx="62" cy="40" rx="2" ry="1.5" />
  <!-- Jowls resting on edge -->
  <path d="M 36 42 C 32 46, 32 50, 38 50" />
  <path d="M 80 42 C 84 46, 84 50, 78 50" />
  <!-- Front paws on edge -->
  <path d="M 18 50 C 18 46, 22 44, 28 46 L 28 50" />
  <path d="M 88 50 C 88 46, 92 44, 98 46 L 98 50" />
  <!-- Paw toe lines -->
  <path d="M 22 50 L 22 48" />
  <path d="M 25 50 L 25 47" />
  <path d="M 92 50 L 92 48" />
  <path d="M 95 50 L 95 47" />
</svg>
