<svg xmlns="http://www.w3.org/2000/svg" viewBox="0 0 100 130" fill="none" stroke="currentColor" stroke-width="2.5" stroke-linecap="round" stroke-linejoin="round">
  <style>:root { color: #1B2438; }</style>
  <!-- Royal crown -->
  <path d="M 28 18 L 22 2 C 22 2, 30 10, 36 12" />
  <path d="M 36 12 C 40 4, 48 0, 50 0 C 52 0, 60 4, 64 12" />
  <path d="M 64 12 C 70 10, 78 2, 78 2 L 72 18" />
  <path d="M 28 18 L 72 18" />
  <!-- Crown base band -->
  <path d="M 28 18 C 28 22, 72 22, 72 18" />
  <!-- Crown jewels -->
  <circle cx="50" cy="6" r="2" fill="currentColor" stroke="none" />
  <circle cx="36" cy="12" r="1.5" fill="currentColor" stroke="none" />
  <circle cx="64" cy="12" r="1.5" fill="currentColor" stroke="none" />
  <!-- Head: wide curved bulldog -->
  <path d="M 20 42 C 18 28, 28 18, 40 16 C 45 15, 55 15, 60 16 C 72 18, 82 28, 80 42 C 80 50, 75 56, 68 59 C 60 62, 40 62, 32 59 C 25 56, 20 50, 20 42" />
  <!-- Forehead wrinkles -->
  <path d="M 34 28 C 40 25, 46 25, 50 28" />
  <path d="M 50 28 C 56 25, 62 25, 66 28" />
  <!-- Rose ears -->
  <path d="M 24 26 C 20 18, 14 16, 12 22 C 11 26, 14 30, 20 30" />
  <path d="M 76 26 C 80 18, 86 16, 88 22 C 89 26, 86 30, 80 30" />
  <!-- Eyes (regal, calm) -->
  <circle cx="36" cy="38" r="3.5" fill="currentColor" />
  <circle cx="64" cy="38" r="3.5" fill="currentColor" />
  <circle cx="35" cy="37" r="1.2" fill="white" stroke="none" />
  <circle cx="63" cy="37" r="1.2" fill="white" stroke="none" />
  <!-- Nose -->
  <path d="M 40 48 C 40 44, 44 42, 50 42 C 56 42, 60 44, 60 48 C 60 52, 56 54, 50 54 C 44 54, 40 52, 40 48" />
  <ellipse cx="46" cy="48" rx="2.5" ry="2" />
  <ellipse cx="54" cy="48" rx="2.5" ry="2" />
  <!-- Underbite -->
  <path d="M 36 56 C 40 54, 46 53, 50 54 C 54 53, 60 54, 64 56" />
  <!-- Jowls -->
  <path d="M 28 50 C 24 54, 24 60, 30 62" />
  <path d="M 72 50 C 76 54, 76 60, 70 62" />
  <!-- Neck rolls -->
  <path d="M 28 62 C 34 66, 42 68, 50 68" />
  <path d="M 72 62 C 66 66, 58 68, 50 68" />
  <!-- Body -->
  <path d="M 28 70 C 22 76, 20 86, 20 94 C 20 100, 22 104, 26 106" />
  <path d="M 72 70 C 78 76, 80 86, 80 94 C 80 100, 78 104, 74 106" />
  <!-- Legs -->
  <path d="M 30 92 C 29 98, 28 106, 28 114" />
  <path d="M 40 94 C 39 100, 38 108, 37 114" />
  <path d="M 60 94 C 61 100, 62 108, 63 114" />
  <path d="M 70 92 C 71 98, 72 106, 72 114" />
  <!-- Paws -->
  <path d="M 24 114 C 26 118, 30 119, 33 118 C 36 119, 40 118, 42 114" />
  <path d="M 58 114 C 60 118, 64 119, 67 118 C 70 119, 74 118, 76 114" />
  <path d="M 30 117 L 30 115" />
  <path d="M 34 118 L 34 116" />
  <path d="M 64 117 L 64 115" />
  <path d="M 68 118 L 68 116" />
  <!-- Belly -->
  <path d="M 26 106 C 40 114, 60 114, 74 106" />
</svg>
