<svg xmlns="http://www.w3.org/2000/svg" viewBox="0 0 130 120" fill="none" stroke="currentColor" stroke-width="2.5" stroke-linecap="round" stroke-linejoin="round">
  <style>:root { color: #1B2438; }</style>
  <!-- Banner ribbon -->
  <path d="M 10 14 L 10 30 L 16 26 L 22 30 L 22 14" stroke-width="1.5" />
  <path d="M 108 14 L 108 30 L 102 26 L 96 30 L 96 14" stroke-width="1.5" />
  <line x1="10" y1="14" x2="120" y2="14" stroke-width="1.5" />
  <!-- Banner drape -->
  <path d="M 22 14 C 45 20, 75 22, 108 14" stroke-width="1.5" />
  <!-- Head (sitting below banner, holding cords) -->
  <path d="M 38 52 C 36 40, 44 30, 54 28 C 58 27, 66 27, 70 28 C 80 30, 88 40, 86 52 C 86 58, 82 63, 76 66 C 70 68, 54 68, 48 66 C 42 63, 38 58, 38 52" />
  <!-- Forehead wrinkles -->
  <path d="M 50 38 C 54 35, 58 35, 62 38" />
  <path d="M 62 38 C 66 35, 70 35, 74 38" />
  <!-- Rose ears -->
  <path d="M 42 38 C 38 30, 32 28, 30 34 C 29 38, 32 42, 38 41" />
  <path d="M 82 38 C 86 30, 92 28, 94 34 C 95 38, 92 42, 86 41" />
  <!-- Eyes -->
  <circle cx="52" cy="48" r="3" fill="currentColor" />
  <circle cx="72" cy="48" r="3" fill="currentColor" />
  <circle cx="51" cy="47" r="1" fill="white" stroke="none" />
  <circle cx="71" cy="47" r="1" fill="white" stroke="none" />
  <!-- Nose -->
  <path d="M 54 56 C 54 52, 58 50, 62 50 C 66 50, 70 52, 70 56 C 70 60, 66 62, 62 62 C 58 62, 54 60, 54 56" />
  <ellipse cx="59" cy="56" rx="2" ry="1.5" />
  <ellipse cx="65" cy="56" rx="2" ry="1.5" />
  <!-- Underbite -->
  <path d="M 52 64 C 56 62, 60 61, 62 62 C 64 61, 68 62, 72 64" />
  <!-- Jowls -->
  <path d="M 44 58 C 40 62, 40 68, 46 70" />
  <path d="M 80 58 C 84 62, 84 68, 78 70" />
  <!-- Paws holding banner cords -->
  <path d="M 34 68 C 30 62, 26 40, 26 26 C 26 22, 24 18, 22 14" stroke-width="2" />
  <path d="M 90 68 C 94 62, 98 40, 98 26 C 98 22, 100 18, 108 14" stroke-width="2" />
  <!-- Body -->
  <path d="M 40 70 C 34 76, 32 84, 32 92 C 32 96, 34 100, 38 102" />
  <path d="M 84 70 C 90 76, 92 84, 92 92 C 92 96, 90 100, 86 102" />
  <!-- Legs -->
  <path d="M 42 90 C 41 96, 40 102, 40 110" />
  <path d="M 52 92 C 51 98, 50 104, 49 110" />
  <path d="M 72 92 C 73 98, 74 104, 75 110" />
  <path d="M 82 90 C 83 96, 84 102, 84 110" />
  <!-- Paws -->
  <path d="M 36 110 C 38 114, 42 115, 45 114 C 48 115, 52 114, 54 110" />
  <path d="M 68 110 C 70 114, 74 115, 77 114 C 80 115, 84 114, 86 110" />
  <!-- Belly -->
  <path d="M 38 102 C 50 110, 74 110, 86 102" />
</svg>
