<svg xmlns="http://www.w3.org/2000/svg" viewBox="0 0 200 200" stroke="currentColor" fill="none" stroke-width="2" stroke-linecap="round" stroke-linejoin="round">
  <style>:root { color: #1B2438; }</style>
  <!-- Star 1 top-left -->
  <path d="M 36 28 L 38 20 L 40 28 L 48 30 L 40 32 L 38 40 L 36 32 L 28 30 Z" />
  <!-- Star 2 center-right -->
  <path d="M 158 72 L 160 64 L 162 72 L 170 74 L 162 76 L 160 84 L 158 76 L 150 74 Z" />
  <!-- Star 3 bottom-left -->
  <path d="M 28 152 L 30 144 L 32 152 L 40 154 L 32 156 L 30 164 L 28 156 L 20 154 Z" />
  <!-- Filled confetti dots scattered -->
  <circle cx="72" cy="18" r="4" fill="currentColor" />
  <circle cx="140" cy="28" r="3" fill="currentColor" />
  <circle cx="180" cy="50" r="3.5" fill="currentColor" />
  <circle cx="20" cy="80" r="3" fill="currentColor" />
  <circle cx="100" cy="48" r="3.5" fill="currentColor" />
  <circle cx="56" cy="120" r="4" fill="currentColor" />
  <circle cx="170" cy="140" r="3" fill="currentColor" />
  <circle cx="90" cy="180" r="3.5" fill="currentColor" />
  <circle cx="140" cy="176" r="3" fill="currentColor" />
  <!-- Squiggly ribbon 1 -->
  <path d="M 80 60 C 86 54, 92 66, 98 60 C 104 54, 110 66, 116 60" />
  <!-- Squiggly ribbon 2 -->
  <path d="M 30 110 C 36 104, 42 116, 48 110 C 54 104, 60 116, 66 110" />
  <!-- Squiggly ribbon 3 -->
  <path d="M 120 120 C 126 114, 132 126, 138 120 C 144 114, 150 126, 156 120" />
  <!-- Squiggly ribbon 4 (vertical) -->
  <path d="M 110 140 C 104 146, 116 152, 110 158 C 104 164, 116 170, 110 176" />
  <!-- Curling streamer 1 -->
  <path d="M 160 100 C 168 96, 176 104, 172 112 C 168 120, 178 124, 186 118" />
  <!-- Curling streamer 2 -->
  <path d="M 40 160 C 48 156, 56 164, 52 172 C 48 180, 58 184, 66 178" />
  <!-- Small diamond shapes -->
  <path d="M 120 30 L 124 36 L 120 42 L 116 36 Z" />
  <path d="M 60 80 L 64 86 L 60 92 L 56 86 Z" />
  <path d="M 180 160 L 184 166 L 180 172 L 176 166 Z" />
  <!-- Tiny accent dots -->
  <circle cx="148" cy="52" r="1.5" fill="currentColor" />
  <circle cx="42" cy="44" r="1.5" fill="currentColor" />
  <circle cx="100" cy="100" r="2" fill="currentColor" />
  <circle cx="160" cy="190" r="1.5" fill="currentColor" />
  <circle cx="30" cy="190" r="1.5" fill="currentColor" />
</svg>
