<svg xmlns="http://www.w3.org/2000/svg" viewBox="0 0 200 200" stroke="currentColor" fill="none" stroke-width="2" stroke-linecap="round" stroke-linejoin="round">
  <style>:root { color: #1B2438; }</style>
  <!-- Martini glass bowl - wide V shape -->
  <path d="M58 55 C60 53, 62 52, 100 95 C138 52, 140 53, 142 55"/>
  <!-- Rim line with slight wobble -->
  <path d="M56 55 C70 52, 85 57, 100 54 C115 51, 130 56, 144 55"/>
  <!-- Liquid fill in glass -->
  <path d="M68 65 C75 63, 82 66, 100 85 C118 66, 125 63, 132 65" fill="currentColor" opacity="0.1"/>
  <!-- Liquid surface line -->
  <path d="M68 65 C78 62, 88 68, 100 66 C112 64, 122 68, 132 65"/>
  <!-- Stem -->
  <path d="M100 95 C99 105, 101 120, 100 140"/>
  <!-- Base -->
  <path d="M72 140 C80 138, 90 142, 100 140 C110 138, 120 142, 128 140"/>
  <!-- Base underline -->
  <path d="M76 144 C85 146, 95 143, 100 145 C105 143, 115 146, 124 144"/>
  <!-- Citrus wheel garnish on rim -->
  <path d="M130 48 C138 42, 148 42, 152 50 C156 58, 150 66, 142 66 C134 66, 126 58, 130 48Z"/>
  <!-- Citrus segments -->
  <path d="M141 48 C140 54, 140 60, 141 65"/>
  <path d="M134 51 C138 55, 144 58, 149 62"/>
  <path d="M149 51 C145 55, 139 58, 134 62"/>
  <!-- Citrus center dot -->
  <circle cx="141" cy="56" r="2" fill="currentColor" opacity="0.15"/>
  <!-- Small ribbon at base -->
  <path d="M92 142 C86 148, 80 152, 74 156"/>
  <path d="M92 142 C88 150, 86 156, 88 162"/>
  <!-- Ribbon loop -->
  <path d="M108 142 C114 148, 120 152, 126 156"/>
  <path d="M108 142 C112 150, 114 156, 112 162"/>
  <!-- Small streamer curl -->
  <path d="M74 156 C70 160, 72 164, 76 162"/>
  <path d="M126 156 C130 160, 128 164, 124 162"/>
</svg>
