<svg xmlns="http://www.w3.org/2000/svg" viewBox="0 0 150 200" stroke="currentColor" fill="none" stroke-width="2" stroke-linecap="round" stroke-linejoin="round">
  <style>:root { color: #1B2438; }</style>
  <!-- Hat cone body -->
  <path d="M 28 168 C 30 160, 50 100, 62 60 C 68 42, 72 28, 75 18" />
  <path d="M 122 168 C 120 160, 100 100, 88 60 C 82 42, 78 28, 75 18" />
  <!-- Hat base brim -->
  <path d="M 22 170 C 24 164, 36 160, 75 160 C 114 160, 126 164, 128 170 C 130 176, 118 180, 75 180 C 32 180, 20 176, 22 170" />
  <!-- Diagonal stripe decoration 1 -->
  <path d="M 50 118 C 56 112, 68 108, 80 106 C 88 104, 96 108, 100 118" />
  <!-- Diagonal stripe decoration 2 -->
  <path d="M 56 98 C 62 92, 72 88, 80 86 C 88 84, 92 88, 96 96" />
  <!-- Diagonal stripe decoration 3 -->
  <path d="M 62 76 C 66 72, 74 68, 80 66 C 84 64, 86 68, 88 74" />
  <!-- Polka dots on hat -->
  <circle cx="60" cy="140" r="3" fill="currentColor" />
  <circle cx="90" cy="140" r="3" fill="currentColor" />
  <circle cx="75" cy="120" r="3" fill="currentColor" />
  <circle cx="68" cy="96" r="2.5" fill="currentColor" />
  <circle cx="82" cy="96" r="2.5" fill="currentColor" />
  <!-- Pom-pom on top -->
  <path d="M 75 18 C 68 14, 64 8, 68 4 C 72 0, 78 0, 82 4 C 86 8, 82 14, 75 18" />
  <path d="M 70 8 C 72 6, 78 6, 80 8" />
  <circle cx="75" cy="8" r="1.5" fill="currentColor" />
  <!-- Streamer 1 - curling right -->
  <path d="M 122 170 C 128 172, 134 168, 136 174 C 138 180, 132 184, 128 186 C 124 188, 130 192, 136 190" />
  <!-- Streamer 2 - curling right lower -->
  <path d="M 126 174 C 132 178, 140 176, 142 182 C 144 188, 138 194, 132 196" />
  <!-- Streamer 3 - curling left -->
  <path d="M 28 170 C 22 172, 16 168, 14 174 C 12 180, 18 184, 22 186 C 26 188, 20 192, 14 190" />
  <!-- Streamer 4 - curling left lower -->
  <path d="M 24 174 C 18 178, 10 176, 8 182 C 6 188, 12 194, 18 196" />
  <!-- Extra confetti bits near top -->
  <circle cx="56" cy="30" r="1.5" fill="currentColor" />
  <circle cx="94" cy="30" r="1.5" fill="currentColor" />
  <path d="M 50 20 L 46 16" />
  <path d="M 100 20 L 104 16" />
</svg>
