<svg xmlns="http://www.w3.org/2000/svg" viewBox="0 0 300 200" stroke="currentColor" fill="none" stroke-width="2" stroke-linecap="round" stroke-linejoin="round">
  <style>:root { color: #1B2438; }</style>

  <!-- HAND 1 (far left) - arm + fist + thumb -->
  <path d="M 30 200 C 28 188, 26 170, 28 156 C 30 142, 34 132, 36 124 C 34 120, 32 114, 34 112 C 36 110, 42 110, 46 112 C 48 114, 48 120, 46 124 C 44 132, 42 142, 44 156 C 46 170, 48 188, 50 200 M 30 118 C 26 116, 24 112, 26 110 C 28 108, 32 110, 34 112" />
  <!-- Hand 1 flute (stem + bowl + liquid) -->
  <path d="M 37 112 C 37 100, 37 88, 37 76 M 27 76 C 25 68, 27 50, 30 44 C 33 38, 41 38, 44 44 C 47 50, 49 68, 47 76 C 44 78, 30 78, 27 76 M 30 58 C 34 56, 40 56, 44 58" />

  <!-- HAND 2 (left-center) - arm + fist + thumb (bouquet) -->
  <path d="M 90 200 C 88 186, 86 168, 88 154 C 90 140, 94 128, 96 118 C 94 114, 92 108, 94 106 C 98 104, 106 104, 108 106 C 110 108, 108 114, 106 118 C 104 128, 102 140, 104 154 C 106 168, 108 186, 110 200 M 88 112 C 84 110, 82 106, 84 104 C 86 102, 90 104, 92 106" />
  <!-- Bouquet stems + leaves -->
  <path d="M 96 106 C 94 96, 92 86, 90 76 M 98 106 C 100 96, 102 86, 104 76 M 84 78 C 80 74, 76 68, 78 64 M 120 78 C 124 74, 128 68, 126 64" />
  <!-- Flower 1 (center) -->
  <path d="M 97 68 C 92 64, 90 56, 94 52 C 98 48, 104 50, 104 56 C 104 50, 110 48, 114 52 C 118 56, 114 64, 109 68 C 106 70, 100 70, 97 68" />
  <circle cx="103" cy="60" r="2.5" fill="currentColor" />
  <!-- Flowers 2+3 (left and right) -->
  <path d="M 82 72 C 78 68, 78 62, 82 60 C 86 58, 90 62, 88 66 C 92 62, 96 64, 94 68 C 92 72, 86 74, 82 72 M 112 72 C 108 68, 108 62, 112 60 C 116 58, 120 62, 118 66 C 122 62, 126 64, 124 68 C 122 72, 116 74, 112 72" />
  <!-- Flower centers 2+3 -->
  <circle cx="87" cy="66" r="2" fill="currentColor" />
  <circle cx="117" cy="66" r="2" fill="currentColor" />

  <!-- HAND 3 (center) - arm + fist + thumb -->
  <path d="M 150 200 C 148 184, 146 160, 148 142 C 150 126, 152 114, 154 106 C 152 102, 150 96, 152 94 C 156 92, 164 92, 166 94 C 168 96, 168 102, 166 106 C 164 114, 162 126, 164 142 C 166 160, 168 184, 170 200 M 148 100 C 144 98, 142 94, 144 92 C 146 90, 150 92, 152 94" />
  <!-- Hand 3 flute (stem + bowl + liquid) -->
  <path d="M 156 94 C 156 80, 156 66, 156 52 M 146 52 C 144 44, 146 26, 149 20 C 152 14, 160 14, 163 20 C 166 26, 168 44, 166 52 C 163 54, 149 54, 146 52 M 149 34 C 153 32, 159 32, 163 34" />

  <!-- HAND 4 (right-center) - arm + fist + thumb -->
  <path d="M 200 200 C 202 186, 206 168, 208 152 C 210 138, 212 128, 214 120 C 212 116, 212 110, 214 108 C 218 106, 226 106, 228 108 C 230 110, 228 116, 226 120 C 224 128, 224 138, 224 152 C 224 168, 222 186, 220 200 M 228 114 C 232 112, 234 108, 232 106 C 230 104, 226 106, 226 108" />
  <!-- Hand 4 flute (stem + bowl + liquid) -->
  <path d="M 219 108 C 220 96, 221 82, 222 70 M 212 70 C 210 62, 212 44, 215 38 C 218 32, 226 32, 229 38 C 232 44, 234 62, 232 70 C 229 72, 215 72, 212 70 M 215 52 C 219 50, 225 50, 229 52" />

  <!-- HAND 5 (far right) - arm + fist + thumb -->
  <path d="M 258 200 C 260 186, 264 168, 266 154 C 268 140, 270 130, 272 122 C 270 118, 270 112, 272 110 C 276 108, 284 108, 286 110 C 288 112, 286 118, 284 122 C 280 130, 280 140, 280 154 C 280 168, 280 186, 282 200 M 286 116 C 290 114, 292 110, 290 108 C 288 106, 284 108, 284 110" />
  <!-- Hand 5 flute (stem + bowl + liquid) -->
  <path d="M 278 110 C 278 98, 278 86, 278 74 M 268 74 C 266 66, 268 48, 271 42 C 274 36, 282 36, 285 42 C 288 48, 290 66, 288 74 C 285 76, 271 76, 268 74 M 271 56 C 275 54, 281 54, 285 56" />

  <!-- Sparkle crosses between glasses -->
  <path d="M 60 36 L 60 28 M 56 32 L 64 32" />
  <path d="M 132 32 L 132 24 M 128 28 L 136 28" />
  <path d="M 192 28 L 192 20 M 188 24 L 196 24" />
  <path d="M 248 34 L 248 26 M 244 30 L 252 30" />
</svg>
