<svg xmlns="http://www.w3.org/2000/svg" viewBox="0 0 300 120" stroke="currentColor" fill="none" stroke-width="2" stroke-linecap="round" stroke-linejoin="round">
  <style>:root { color: #1B2438; }</style>
  <!-- Main string line top row -->
  <path d="M 4 18 C 20 12, 40 10, 60 16 C 80 22, 100 24, 120 18 C 140 12, 160 10, 180 16 C 200 22, 220 24, 240 18 C 260 12, 280 10, 296 16" />
  <!-- Pennant flag 1 -->
  <path d="M 30 14 C 28 12, 26 14, 28 16 L 22 44 C 24 42, 36 42, 38 44 L 32 16 C 34 14, 32 12, 30 14" />
  <!-- Pennant flag 2 -->
  <path d="M 80 22 C 78 20, 76 22, 78 24 L 72 50 C 74 48, 86 48, 88 50 L 82 24 C 84 22, 82 20, 80 22" />
  <!-- Pennant flag 3 -->
  <path d="M 130 16 C 128 14, 126 16, 128 18 L 122 46 C 124 44, 136 44, 138 46 L 132 18 C 134 16, 132 14, 130 16" />
  <!-- Pennant flag 4 -->
  <path d="M 180 22 C 178 20, 176 22, 178 24 L 172 50 C 174 48, 186 48, 188 50 L 182 24 C 184 22, 182 20, 180 22" />
  <!-- Pennant flag 5 -->
  <path d="M 230 16 C 228 14, 226 16, 228 18 L 222 46 C 224 44, 236 44, 238 46 L 232 18 C 234 16, 232 14, 230 16" />
  <!-- Bow at flag 1 -->
  <path d="M 26 13 C 22 10, 18 14, 24 15 M 34 13 C 38 10, 42 14, 36 15" />
  <!-- Bow at flag 3 -->
  <path d="M 126 15 C 122 12, 118 16, 124 17 M 134 15 C 138 12, 142 16, 136 17" />
  <!-- Bow at flag 5 -->
  <path d="M 226 15 C 222 12, 218 16, 224 17 M 234 15 C 238 12, 242 16, 236 17" />
  <!-- Second row string -->
  <path d="M 10 58 C 30 52, 60 50, 90 56 C 120 62, 150 64, 180 58 C 210 52, 240 50, 270 56 C 280 58, 288 56, 296 54" />
  <!-- Second row flag 1 -->
  <path d="M 50 54 C 48 52, 46 54, 48 56 L 42 82 C 44 80, 56 80, 58 82 L 52 56 C 54 54, 52 52, 50 54" />
  <!-- Second row flag 2 -->
  <path d="M 130 62 C 128 60, 126 62, 128 64 L 122 90 C 124 88, 136 88, 138 90 L 132 64 C 134 62, 132 60, 130 62" />
  <!-- Second row flag 3 -->
  <path d="M 210 54 C 208 52, 206 54, 208 56 L 202 82 C 204 80, 216 80, 218 82 L 212 56 C 214 54, 212 52, 210 54" />
  <!-- Dangling lights from top string -->
  <path d="M 55 17 L 55 30" />
  <circle cx="55" cy="32" r="2.5" fill="currentColor" />
  <path d="M 155 14 L 155 28" />
  <circle cx="155" cy="30" r="2.5" fill="currentColor" />
  <path d="M 255 14 L 255 28" />
  <circle cx="255" cy="30" r="2.5" fill="currentColor" />
  <!-- Dangling lights from bottom string -->
  <path d="M 90 57 L 90 70" />
  <circle cx="90" cy="72" r="2.5" fill="currentColor" />
  <path d="M 170 60 L 170 73" />
  <circle cx="170" cy="75" r="2.5" fill="currentColor" />
  <path d="M 250 55 L 250 68" />
  <circle cx="250" cy="70" r="2.5" fill="currentColor" />
  <!-- Extra sparkle dots -->
  <circle cx="110" cy="38" r="1.2" fill="currentColor" />
  <circle cx="200" cy="40" r="1" fill="currentColor" />
  <circle cx="280" cy="42" r="1.2" fill="currentColor" />
</svg>
