<svg xmlns="http://www.w3.org/2000/svg" viewBox="0 0 200 150" stroke="currentColor" fill="none" stroke-width="2" stroke-linecap="round" stroke-linejoin="round">
  <style>:root { color: #1B2438; }</style>
  <!-- Left ring outer -->
  <path d="M 30 75 C 30 42, 58 28, 80 28 C 96 28, 108 38, 110 52" />
  <path d="M 110 52 C 112 38, 104 28, 80 28" />
  <!-- Completing left ring as full ellipse with bezier -->
  <path d="M 30 75 C 30 108, 58 122, 80 122 C 102 122, 116 108, 116 90" />
  <path d="M 116 90 C 116 108, 102 122, 80 122" />
  <!-- Left ring inner edge (band thickness) -->
  <path d="M 38 75 C 38 48, 60 36, 80 36 C 100 36, 108 48, 108 60" />
  <path d="M 38 75 C 38 102, 60 114, 80 114 C 100 114, 108 102, 108 90" />
  <!-- Right ring outer -->
  <path d="M 90 60 C 90 38, 108 28, 128 28 C 152 28, 172 42, 172 75 C 172 108, 152 122, 128 122 C 108 122, 90 108, 90 90" />
  <!-- Right ring inner edge (band thickness) -->
  <path d="M 98 60 C 98 44, 112 36, 128 36 C 148 36, 164 48, 164 75 C 164 102, 148 114, 128 114 C 112 114, 98 102, 98 90" />
  <!-- Diamond on right ring - gem shape -->
  <path d="M 118 28 L 128 12 L 138 28" />
  <path d="M 120 28 L 128 18 L 136 28" />
  <!-- Diamond facets -->
  <path d="M 128 12 L 128 18" />
  <path d="M 122 24 L 128 18 L 134 24" />
  <!-- Diamond sparkle lines -->
  <path d="M 128 6 L 128 2" />
  <path d="M 116 10 L 112 6" />
  <path d="M 140 10 L 144 6" />
  <path d="M 142 18 L 148 16" />
  <path d="M 114 18 L 108 16" />
  <!-- Small sparkle cross left -->
  <path d="M 48 42 L 48 36 M 45 39 L 51 39" />
  <!-- Small sparkle cross right -->
  <path d="M 158 42 L 158 36 M 155 39 L 161 39" />
  <!-- Engraving hint lines on left ring -->
  <path d="M 56 72 C 60 68, 68 66, 74 68" />
  <path d="M 58 80 C 62 76, 70 74, 76 76" />
</svg>
