<svg xmlns="http://www.w3.org/2000/svg" viewBox="0 0 200 200" stroke="currentColor" fill="none" stroke-width="2" stroke-linecap="round" stroke-linejoin="round">
  <style>:root { color: #1B2438; }</style>
  <!-- Central large flower -->
  <path d="M100 58 C92 50, 88 38, 94 30 C100 22, 108 22, 112 30 C118 22, 126 26, 122 36 C128 30, 134 38, 128 48 C134 44, 132 56, 124 60 C118 64, 106 64, 100 58Z"/>
  <circle cx="110" cy="46" r="5" fill="currentColor" opacity="0.1"/>
  <!-- Left flower -->
  <path d="M62 68 C56 60, 54 48, 60 42 C66 36, 74 40, 72 48 C78 42, 84 46, 80 54 C76 60, 68 72, 62 68Z"/>
  <circle cx="70" cy="52" r="3.5" fill="currentColor" opacity="0.1"/>
  <!-- Right flower -->
  <path d="M148 62 C144 54, 146 44, 152 40 C158 36, 164 42, 160 50 C166 46, 168 54, 162 60 C156 66, 150 66, 148 62Z"/>
  <circle cx="156" cy="52" r="3" fill="currentColor" opacity="0.1"/>
  <!-- Top left bud -->
  <path d="M78 38 C74 32, 78 24, 84 28 C88 22, 94 28, 90 36"/>
  <!-- Top right bud -->
  <path d="M130 34 C128 28, 132 22, 136 26 C140 20, 146 26, 142 34"/>
  <!-- Small filler flower left -->
  <path d="M48 82 C44 76, 48 68, 54 72 C58 66, 64 72, 60 78 C56 84, 50 86, 48 82Z"/>
  <!-- Small filler flower right -->
  <path d="M160 78 C158 72, 162 66, 166 70 C170 64, 176 70, 172 76 C168 82, 162 82, 160 78Z"/>
  <!-- Stems gathering down -->
  <path d="M100 64 C98 80, 96 96, 96 110"/>
  <path d="M68 68 C76 82, 84 96, 92 110"/>
  <path d="M152 62 C140 78, 124 96, 112 110"/>
  <path d="M84 34 C86 50, 88 70, 94 110"/>
  <path d="M136 30 C130 50, 120 80, 110 110"/>
  <path d="M54 80 C64 90, 78 100, 90 110"/>
  <path d="M166 76 C154 88, 130 100, 114 110"/>
  <!-- Wrapping/tie point -->
  <path d="M86 112 C90 108, 98 110, 100 112 C102 110, 110 108, 114 112"/>
  <path d="M86 118 C90 114, 98 116, 100 118 C102 116, 110 114, 114 118"/>
  <!-- Stems below tie -->
  <path d="M94 118 C90 135, 84 155, 78 175"/>
  <path d="M100 118 C100 140, 100 160, 100 180"/>
  <path d="M106 118 C110 135, 116 155, 122 175"/>
  <!-- Ribbon bow -->
  <path d="M86 115 C76 108, 64 112, 66 120 C68 128, 78 126, 86 118"/>
  <path d="M114 115 C124 108, 136 112, 134 120 C132 128, 122 126, 114 118"/>
  <!-- Ribbon tails -->
  <path d="M66 120 C60 130, 58 140, 62 148"/>
  <path d="M134 120 C140 130, 142 140, 138 148"/>
  <!-- Leaves -->
  <path d="M92 90 C84 86, 76 90, 80 96"/>
  <path d="M112 86 C120 82, 126 86, 122 92"/>
</svg>
