<svg xmlns="http://www.w3.org/2000/svg" viewBox="0 0 200 80" stroke="currentColor" fill="none" stroke-width="2" stroke-linecap="round" stroke-linejoin="round">
  <style>:root { color: #1B2438; }</style>
  <!-- Ground -->
  <line x1="0" y1="75" x2="200" y2="75"/>
  <!-- Building 1 -->
  <rect x="5" y="30" width="35" height="45"/>
  <rect x="12" y="40" width="10" height="10"/>
  <rect x="12" y="58" width="10" height="17"/>
  <!-- Building 2 -->
  <rect x="44" y="20" width="35" height="55"/>
  <rect x="51" y="30" width="10" height="10"/>
  <rect x="51" y="48" width="10" height="10"/>
  <rect x="51" y="63" width="10" height="12"/>
  <!-- Building 3 -->
  <rect x="83" y="35" width="30" height="40"/>
  <rect x="90" y="44" width="10" height="10"/>
  <rect x="90" y="62" width="10" height="13"/>
  <!-- Building 4 -->
  <rect x="117" y="15" width="35" height="60"/>
  <rect x="124" y="25" width="10" height="10"/>
  <rect x="124" y="43" width="10" height="10"/>
  <rect x="124" y="60" width="10" height="15"/>
  <!-- Building 5 -->
  <rect x="156" y="28" width="38" height="47"/>
  <rect x="163" y="38" width="10" height="10"/>
  <rect x="163" y="56" width="10" height="19"/>
</svg>
