<svg xmlns="http://www.w3.org/2000/svg" viewBox="0 0 130 100" stroke="currentColor" fill="none" stroke-width="2" stroke-linecap="round" stroke-linejoin="round">
  <style>:root { color: #1B2438; }</style>
  <!-- Background building left -->
  <rect x="5" y="15" width="18" height="45"/>
  <!-- Background building center -->
  <rect x="28" y="8" width="14" height="52"/>
  <!-- Background building right -->
  <rect x="47" y="20" width="16" height="40"/>
  <!-- Background building far right -->
  <rect x="68" y="12" width="12" height="48"/>
  <!-- Bar counter -->
  <rect x="10" y="68" width="110" height="6"/>
  <!-- Cocktail glass 1 stem -->
  <line x1="35" y1="68" x2="35" y2="58"/>
  <!-- Cocktail glass 1 bowl -->
  <polygon points="28,58 42,58 35,48"/>
  <!-- Cocktail glass 2 stem -->
  <line x1="65" y1="68" x2="65" y2="60"/>
  <!-- Cocktail glass 2 bowl -->
  <ellipse cx="65" cy="56" rx="6" ry="4"/>
  <!-- Cocktail glass 3 stem -->
  <line x1="95" y1="68" x2="95" y2="58"/>
  <!-- Cocktail glass 3 bowl -->
  <polygon points="88,58 102,58 95,48"/>
  <!-- Bar stool left -->
  <rect x="25" y="78" width="10" height="3"/>
  <!-- Bar stool left leg -->
  <line x1="30" y1="81" x2="30" y2="92"/>
  <!-- Bar stool right -->
  <rect x="85" y="78" width="10" height="3"/>
  <!-- Bar stool right leg -->
  <line x1="90" y1="81" x2="90" y2="92"/>
  <!-- Ground -->
  <line x1="5" y1="92" x2="125" y2="92"/>
</svg>
