<svg xmlns="http://www.w3.org/2000/svg" viewBox="0 0 200 80" stroke="currentColor" fill="none" stroke-width="2" stroke-linecap="round" stroke-linejoin="round">
  <style>:root { color: #1B2438; }</style>
  <!-- Distant skyline buildings -->
  <rect x="50" y="15" width="10" height="25"/>
  <rect x="62" y="10" width="8" height="30"/>
  <rect x="72" y="18" width="12" height="22"/>
  <!-- CN Tower distant -->
  <rect x="88" y="5" width="3" height="35"/>
  <ellipse cx="89.5" cy="18" rx="5" ry="3"/>
  <line x1="89.5" y1="2" x2="89.5" y2="5"/>
  <!-- More buildings -->
  <rect x="96" y="14" width="10" height="26"/>
  <rect x="108" y="20" width="12" height="20"/>
  <rect x="122" y="16" width="8" height="24"/>
  <rect x="132" y="22" width="14" height="18"/>
  <!-- Waterline -->
  <line x1="0" y1="40" x2="200" y2="40"/>
  <!-- Water ripple lines -->
  <line x1="20" y1="48" x2="50" y2="48"/>
  <line x1="80" y1="52" x2="120" y2="52"/>
  <line x1="140" y1="48" x2="175" y2="48"/>
  <line x1="40" y1="58" x2="70" y2="58"/>
  <line x1="110" y1="62" x2="150" y2="62"/>
  <!-- Island shore -->
  <line x1="0" y1="72" x2="200" y2="72"/>
</svg>
