<svg xmlns="http://www.w3.org/2000/svg" viewBox="0 0 160 100" stroke="currentColor" fill="none" stroke-width="2" stroke-linecap="round" stroke-linejoin="round">
  <style>:root { color: #1B2438; }</style>
  <!-- Distant skyline -->
  <rect x="20" y="15" width="12" height="30"/>
  <rect x="35" y="10" width="10" height="35"/>
  <rect x="48" y="18" width="14" height="27"/>
  <!-- Distant CN Tower -->
  <rect x="68" y="5" width="3" height="40"/>
  <ellipse cx="69.5" cy="18" rx="5" ry="3"/>
  <line x1="69.5" y1="2" x2="69.5" y2="5"/>
  <!-- More buildings -->
  <rect x="78" y="12" width="12" height="33"/>
  <rect x="93" y="20" width="15" height="25"/>
  <rect x="111" y="16" width="10" height="29"/>
  <rect x="124" y="22" width="16" height="23"/>
  <!-- Railing foreground -->
  <line x1="0" y1="65" x2="160" y2="65"/>
  <line x1="0" y1="70" x2="160" y2="70"/>
  <!-- Railing posts -->
  <line x1="10" y1="65" x2="10" y2="70"/>
  <line x1="40" y1="65" x2="40" y2="70"/>
  <line x1="70" y1="65" x2="70" y2="70"/>
  <line x1="100" y1="65" x2="100" y2="70"/>
  <line x1="130" y1="65" x2="130" y2="70"/>
  <!-- Rooftop floor -->
  <line x1="0" y1="95" x2="160" y2="95"/>
</svg>
