<svg xmlns="http://www.w3.org/2000/svg" viewBox="0 0 300 100" stroke="currentColor" fill="none" stroke-width="2" stroke-linecap="round" stroke-linejoin="round">
  <style>:root { color: #1B2438; }</style>
  <!-- Building 1 -->
  <rect x="15" y="30" width="25" height="35"/>
  <!-- Building 2 -->
  <rect x="44" y="20" width="20" height="45"/>
  <!-- Building 3 -->
  <rect x="68" y="35" width="22" height="30"/>
  <!-- CN Tower -->
  <rect x="98" y="8" width="4" height="57"/>
  <ellipse cx="100" cy="25" rx="8" ry="4"/>
  <line x1="100" y1="2" x2="100" y2="8"/>
  <!-- Building 4 -->
  <rect x="112" y="25" width="25" height="40"/>
  <!-- Building 5 -->
  <rect x="141" y="18" width="20" height="47"/>
  <!-- Building 6 -->
  <rect x="165" y="32" width="22" height="33"/>
  <!-- Building 7 -->
  <rect x="191" y="28" width="28" height="37"/>
  <!-- Building 8 -->
  <rect x="223" y="38" width="25" height="27"/>
  <!-- Building 9 -->
  <rect x="252" y="34" width="30" height="31"/>
  <!-- Waterline -->
  <line x1="0" y1="65" x2="300" y2="65"/>
  <!-- Reflection lines -->
  <line x1="30" y1="72" x2="55" y2="72"/>
  <line x1="100" y1="75" x2="130" y2="75"/>
  <line x1="170" y1="72" x2="200" y2="72"/>
  <line x1="240" y1="78" x2="270" y2="78"/>
  <line x1="60" y1="82" x2="90" y2="82"/>
  <line x1="150" y1="85" x2="180" y2="85"/>
</svg>
