<svg xmlns="http://www.w3.org/2000/svg" viewBox="0 0 160 70" fill="none" stroke="currentColor" stroke-width="2" stroke-linecap="round" stroke-linejoin="round">
  <style>:root { color: #1B2438; }</style>

  <!-- Main body -->
  <path d="M 15 28 L 15 55 Q 15 60 20 60 L 140 60 Q 145 60 145 55 L 145 28 Q 145 22 138 22 L 22 22 Q 15 22 15 28" />

  <!-- Roof curve -->
  <path d="M 18 22 Q 80 14 142 22" />

  <!-- Front destination sign -->
  <rect x="20" y="25" width="25" height="8" rx="1" />

  <!-- Windows row -->
  <rect x="22" y="36" width="10" height="12" rx="1" />
  <rect x="36" y="36" width="10" height="12" rx="1" />
  <rect x="50" y="36" width="10" height="12" rx="1" />
  <!-- Door -->
  <rect x="64" y="33" width="12" height="27" rx="1" />
  <line x1="70" y1="33" x2="70" y2="60" />
  <!-- More windows -->
  <rect x="80" y="36" width="10" height="12" rx="1" />
  <rect x="94" y="36" width="10" height="12" rx="1" />
  <rect x="108" y="36" width="10" height="12" rx="1" />
  <!-- Rear door -->
  <rect x="122" y="33" width="12" height="27" rx="1" />
  <line x1="128" y1="33" x2="128" y2="60" />

  <!-- Headlight -->
  <circle cx="18" cy="42" r="2" />
  <!-- Taillight -->
  <circle cx="142" cy="42" r="2" />

  <!-- Wheels -->
  <circle cx="35" cy="63" r="3" />
  <circle cx="55" cy="63" r="3" />
  <circle cx="105" cy="63" r="3" />
  <circle cx="125" cy="63" r="3" />

  <!-- Rail line -->
  <line x1="5" y1="66" x2="155" y2="66" />

  <!-- Overhead trolley pole -->
  <line x1="80" y1="14" x2="90" y2="3" />
  <!-- Wire -->
  <line x1="5" y1="3" x2="155" y2="3" />
</svg>
