<svg xmlns="http://www.w3.org/2000/svg" viewBox="0 0 140 90" stroke="currentColor" fill="none" stroke-width="2" stroke-linecap="round" stroke-linejoin="round">
  <style>:root { color: #1B2438; }</style>
  <!-- Tree 1 trunk -->
  <line x1="20" y1="60" x2="20" y2="35"/>
  <!-- Tree 1 canopy -->
  <ellipse cx="20" cy="28" rx="12" ry="10"/>
  <!-- Tree 2 trunk -->
  <line x1="45" y1="55" x2="45" y2="28"/>
  <!-- Tree 2 canopy -->
  <ellipse cx="45" cy="20" rx="14" ry="12"/>
  <!-- Tree 3 trunk -->
  <line x1="115" y1="58" x2="115" y2="32"/>
  <!-- Tree 3 canopy -->
  <ellipse cx="115" cy="24" rx="13" ry="11"/>
  <!-- Bridge arch -->
  <ellipse cx="80" cy="65" rx="22" ry="12"/>
  <!-- Bridge deck -->
  <line x1="58" y1="65" x2="102" y2="65"/>
  <!-- Bridge railing left -->
  <line x1="60" y1="65" x2="60" y2="59"/>
  <!-- Bridge railing right -->
  <line x1="100" y1="65" x2="100" y2="59"/>
  <!-- Bridge railing top -->
  <line x1="60" y1="59" x2="100" y2="59"/>
  <!-- Bridge railing mid post -->
  <line x1="80" y1="65" x2="80" y2="59"/>
  <!-- Ground left -->
  <line x1="2" y1="68" x2="58" y2="65"/>
  <!-- Ground right -->
  <line x1="102" y1="65" x2="138" y2="68"/>
  <!-- Small bush -->
  <ellipse cx="130" cy="64" rx="6" ry="4"/>
  <!-- Path line -->
  <polyline points="5,75 35,72 55,70 105,70 130,72 138,75"/>
</svg>
