<svg xmlns="http://www.w3.org/2000/svg" viewBox="0 0 150 80" stroke="currentColor" fill="none" stroke-width="2" stroke-linecap="round" stroke-linejoin="round">
  <style>:root { color: #1B2438; }</style>
  <!-- Trail path -->
  <polyline points="5,55 25,52 50,50 80,48 110,46 140,44"/>
  <!-- Trail edge -->
  <polyline points="5,60 25,57 50,55 80,53 110,51 140,49"/>
  <!-- Tree 1 trunk -->
  <line x1="20" y1="48" x2="20" y2="30"/>
  <!-- Tree 1 canopy -->
  <ellipse cx="20" cy="24" rx="10" ry="8"/>
  <!-- Tree 2 trunk -->
  <line x1="55" y1="46" x2="55" y2="26"/>
  <!-- Tree 2 canopy -->
  <ellipse cx="55" cy="20" rx="11" ry="9"/>
  <!-- Tree 3 trunk -->
  <line x1="100" y1="44" x2="100" y2="25"/>
  <!-- Tree 3 canopy -->
  <ellipse cx="100" cy="19" rx="9" ry="8"/>
  <!-- Small bush -->
  <ellipse cx="75" cy="48" rx="6" ry="4"/>
  <!-- Water area wave 1 -->
  <polyline points="5,68 18,64 30,68 42,64 55,68 68,64 80,68"/>
  <!-- Water area wave 2 -->
  <polyline points="80,68 92,64 105,68 118,64 130,68 142,64"/>
  <!-- Water area wave 3 -->
  <polyline points="10,74 25,70 40,74 55,70 70,74 85,70 100,74 115,70 130,74 145,70"/>
  <!-- Shore line -->
  <line x1="2" y1="63" x2="148" y2="58"/>
</svg>
