<svg xmlns="http://www.w3.org/2000/svg" viewBox="0 0 140 80" stroke="currentColor" fill="none" stroke-width="2" stroke-linecap="round" stroke-linejoin="round">
  <style>:root { color: #1B2438; }</style>
  <!-- Sun -->
  <circle cx="70" cy="18" r="12"/>
  <!-- Sun ray left -->
  <line x1="50" y1="18" x2="44" y2="18"/>
  <!-- Sun ray right -->
  <line x1="90" y1="18" x2="96" y2="18"/>
  <!-- Sun ray top -->
  <line x1="70" y1="2" x2="70" y2="4"/>
  <!-- Sun ray top-left -->
  <line x1="56" y1="8" x2="53" y2="5"/>
  <!-- Sun ray top-right -->
  <line x1="84" y1="8" x2="87" y2="5"/>
  <!-- Horizon line -->
  <line x1="2" y1="38" x2="138" y2="38"/>
  <!-- Wave row 1 -->
  <polyline points="5,48 15,44 25,48 35,44 45,48 55,44 65,48 75,44 85,48 95,44 105,48 115,44 125,48 135,44"/>
  <!-- Wave row 2 -->
  <polyline points="5,56 18,52 30,56 42,52 55,56 68,52 80,56 92,52 105,56 118,52 130,56"/>
  <!-- Wave row 3 -->
  <polyline points="5,64 20,60 35,64 50,60 65,64 80,60 95,64 110,60 125,64 138,60"/>
  <!-- Wave row 4 -->
  <polyline points="5,72 22,68 40,72 58,68 75,72 92,68 110,72 128,68 138,72"/>
  <!-- Distant shore hint -->
  <line x1="2" y1="36" x2="20" y2="35"/>
  <!-- Distant shore hint right -->
  <line x1="120" y1="35" x2="138" y2="36"/>
</svg>
