<svg xmlns="http://www.w3.org/2000/svg" viewBox="0 0 120 50" stroke="currentColor" fill="none" stroke-width="2" stroke-linecap="round" stroke-linejoin="round">
  <style>:root { color: #1B2438; }</style>
  <!-- Sign frame outer -->
  <rect x="5" y="5" width="110" height="40"/>
  <!-- Sign frame inner -->
  <rect x="10" y="10" width="100" height="30"/>
  <!-- D -->
  <line x1="20" y1="18" x2="20" y2="32"/>
  <polyline points="20,18 28,18 28,32 20,32"/>
  <!-- R -->
  <line x1="33" y1="18" x2="33" y2="32"/>
  <polyline points="33,18 40,18 40,25 33,25"/>
  <line x1="37" y1="25" x2="41" y2="32"/>
  <!-- A -->
  <line x1="45" y1="32" x2="49" y2="18"/>
  <line x1="49" y1="18" x2="53" y2="32"/>
  <line x1="47" y1="26" x2="51" y2="26"/>
  <!-- K -->
  <line x1="57" y1="18" x2="57" y2="32"/>
  <line x1="57" y1="25" x2="64" y2="18"/>
  <line x1="57" y1="25" x2="64" y2="32"/>
  <!-- E -->
  <line x1="68" y1="18" x2="68" y2="32"/>
  <line x1="68" y1="18" x2="75" y2="18"/>
  <line x1="68" y1="25" x2="74" y2="25"/>
  <line x1="68" y1="32" x2="75" y2="32"/>
</svg>
