<svg xmlns="http://www.w3.org/2000/svg" viewBox="0 0 200 100" stroke="currentColor" fill="none" stroke-width="2" stroke-linecap="round" stroke-linejoin="round">
  <style>:root { color: #1B2438; }</style>
  <!-- Building 1 -->
  <rect x="10" y="40" width="20" height="40"/>
  <!-- Building 2 -->
  <rect x="34" y="30" width="18" height="50"/>
  <!-- Building 3 -->
  <rect x="56" y="45" width="16" height="35"/>
  <!-- CN Tower -->
  <rect x="78" y="10" width="3" height="70"/>
  <ellipse cx="79.5" cy="28" rx="7" ry="3"/>
  <line x1="79.5" y1="4" x2="79.5" y2="10"/>
  <!-- Building 4 -->
  <rect x="90" y="35" width="20" height="45"/>
  <!-- Building 5 -->
  <rect x="114" y="25" width="16" height="55"/>
  <!-- Building 6 -->
  <rect x="134" y="42" width="22" height="38"/>
  <!-- Building 7 -->
  <rect x="160" y="38" width="28" height="42"/>
  <!-- Ground -->
  <line x1="0" y1="80" x2="200" y2="80"/>
  <!-- Snowflakes -->
  <circle cx="15" cy="15" r="2"/>
  <circle cx="50" cy="10" r="1.5"/>
  <circle cx="100" cy="8" r="2"/>
  <circle cx="140" cy="12" r="1.5"/>
  <circle cx="180" cy="6" r="2"/>
  <circle cx="30" cy="55" r="1.5"/>
  <circle cx="70" cy="60" r="1"/>
  <circle cx="120" cy="50" r="1.5"/>
  <circle cx="170" cy="55" r="1"/>
  <circle cx="195" cy="30" r="1.5"/>
</svg>
