<svg xmlns="http://www.w3.org/2000/svg" viewBox="0 0 130 90" stroke="currentColor" fill="none" stroke-width="2" stroke-linecap="round" stroke-linejoin="round">
  <style>:root { color: #1B2438; }</style>
  <!-- Wall -->
  <rect x="5" y="5" width="120" height="75"/>
  <!-- Frame 1 large -->
  <rect x="12" y="15" width="28" height="22"/>
  <!-- Frame 1 inner mat -->
  <rect x="16" y="19" width="20" height="14"/>
  <!-- Frame 2 medium -->
  <rect x="50" y="12" width="20" height="28"/>
  <!-- Frame 2 inner mat -->
  <rect x="54" y="16" width="12" height="20"/>
  <!-- Frame 3 small -->
  <rect x="82" y="18" width="16" height="16"/>
  <!-- Frame 3 inner mat -->
  <rect x="85" y="21" width="10" height="10"/>
  <!-- Frame 4 small lower -->
  <rect x="105" y="20" width="12" height="12"/>
  <!-- Figure body -->
  <line x1="65" y1="58" x2="65" y2="72"/>
  <!-- Figure head -->
  <circle cx="65" cy="54" r="4"/>
  <!-- Figure left arm -->
  <line x1="65" y1="62" x2="58" y2="66"/>
  <!-- Figure right arm -->
  <line x1="65" y1="62" x2="72" y2="66"/>
  <!-- Figure left leg -->
  <line x1="65" y1="72" x2="60" y2="80"/>
  <!-- Figure right leg -->
  <line x1="65" y1="72" x2="70" y2="80"/>
  <!-- Floor line -->
  <line x1="5" y1="80" x2="125" y2="80"/>
  <!-- Bench -->
  <rect x="85" y="70" width="25" height="4"/>
</svg>
