<svg xmlns="http://www.w3.org/2000/svg" viewBox="0 0 180 60" stroke="currentColor" fill="none" stroke-width="2" stroke-linecap="round" stroke-linejoin="round">
  <style>:root { color: #1B2438; }</style>
  <!-- Ground -->
  <line x1="0" y1="55" x2="180" y2="55"/>
  <!-- T -->
  <rect x="8" y="15" width="16" height="40"/>
  <rect x="4" y="15" width="24" height="6"/>
  <!-- O -->
  <rect x="30" y="15" width="14" height="40"/>
  <rect x="33" y="18" width="8" height="34"/>
  <!-- R -->
  <rect x="48" y="15" width="14" height="40"/>
  <rect x="48" y="15" width="14" height="18"/>
  <line x1="55" y1="33" x2="62" y2="55"/>
  <!-- O -->
  <rect x="66" y="15" width="14" height="40"/>
  <rect x="69" y="18" width="8" height="34"/>
  <!-- N -->
  <rect x="84" y="15" width="5" height="40"/>
  <rect x="97" y="15" width="5" height="40"/>
  <line x1="89" y1="15" x2="97" y2="55"/>
  <!-- T -->
  <rect x="110" y="15" width="16" height="40"/>
  <rect x="106" y="15" width="24" height="6"/>
  <!-- O -->
  <rect x="134" y="15" width="14" height="40"/>
  <rect x="137" y="18" width="8" height="34"/>
  <!-- 3D depth lines -->
  <line x1="8" y1="55" x2="5" y2="58"/>
  <line x1="62" y1="55" x2="59" y2="58"/>
  <line x1="102" y1="55" x2="99" y2="58"/>
  <line x1="148" y1="55" x2="145" y2="58"/>
</svg>
