<svg xmlns="http://www.w3.org/2000/svg" viewBox="0 0 120 80" stroke="currentColor" fill="none" stroke-width="2" stroke-linecap="round" stroke-linejoin="round">
  <style>:root { color: #1B2438; }</style>
  <!-- Hull -->
  <polygon points="15,55 105,55 95,68 25,68"/>
  <!-- Deck -->
  <rect x="30" y="42" width="60" height="13"/>
  <!-- Cabin -->
  <rect x="40" y="30" width="35" height="12"/>
  <!-- Cabin window left -->
  <circle cx="48" cy="36" r="3"/>
  <!-- Cabin window right -->
  <circle cx="62" cy="36" r="3"/>
  <!-- Smokestack -->
  <rect x="55" y="20" width="8" height="10"/>
  <!-- Smoke puff -->
  <circle cx="67" cy="17" r="3"/>
  <!-- Railing post left -->
  <line x1="32" y1="42" x2="32" y2="38"/>
  <!-- Railing post right -->
  <line x1="88" y1="42" x2="88" y2="38"/>
  <!-- Railing line -->
  <line x1="32" y1="38" x2="88" y2="38"/>
  <!-- Flag pole -->
  <line x1="92" y1="30" x2="92" y2="42"/>
  <!-- Flag -->
  <polygon points="92,30 100,33 92,36"/>
  <!-- Water wave left -->
  <polyline points="5,72 15,68 25,72 35,68"/>
  <!-- Water wave right -->
  <polyline points="75,72 85,68 95,72 105,68 115,72"/>
</svg>
